<?xml version="1.0" encoding="utf-8"?><svg xmlns="http://www.w3.org/2000/svg" viewBox="0 0 50 50"><circle cx="25" cy="25" r="25" fill="#262626"/><path d="M13.3 18.3c.6-1.5 2.1-2.4 3.6-2.3h8.5H34c1.6-.1 3 .8 3.7 2.2.1.2.2.4.1.6s-.2.4-.5.4l-11.3 6c-.3.2-.6.2-.9 0l-11.4-5.9c-.1 0-.2-.1-.2-.1s-.1-.1-.1-.2v-.3c0-.1-.1-.3-.1-.4h0zm.8 3.8l10.6 5.5c.2.1.5.2.8.2s.5-.1.8-.2l10.6-5.5c.1-.1.2-.1.3-.1h.3c.1 0 .2.1.3.1s.1.1.2.2.1.2 0 .3v7.1c0 .6 0 1.2-.1 1.8-.1.9-.6 1.7-1.3 2.3s-1.6.9-2.5.9h-7H17c-.9 0-1.7-.3-2.4-.8s-1.2-1.3-1.4-2.1c-.1-.3-.1-.7-.1-1v-8.2c-.1-.6.3-.8 1-.5h0z" fill="#fff"/></svg>