<?xml version="1.0" encoding="utf-8"?><svg xmlns="http://www.w3.org/2000/svg" width="50" height="50" fill="none"><circle cx="25" cy="25" r="25" fill="#0072b1"/><path fill-rule="evenodd" d="M14 15.922A1.92 1.92 0 0 1 15.922 14h19.155a1.92 1.92 0 0 1 1.36.562 1.92 1.92 0 0 1 .563 1.36v19.155a1.92 1.92 0 0 1-.562 1.36 1.92 1.92 0 0 1-1.36.563H15.922a1.92 1.92 0 0 1-1.359-.563 1.92 1.92 0 0 1-.416-.624c-.097-.233-.146-.483-.146-.736V15.922zm9.104 6.848h3.114v1.564c.45-.899 1.6-1.708 3.328-1.708 3.313 0 4.098 1.791 4.098 5.077v6.087h-3.353V28.45c0-1.871-.45-2.927-1.591-2.927-1.584 0-2.242 1.139-2.242 2.927v5.338h-3.354V22.769zm-5.75 10.876h3.354v-11.02h-3.354v11.019.001zm3.834-14.614a2.16 2.16 0 0 1-.15.84c-.105.267-.263.511-.464.716s-.441.368-.705.48-.549.169-.836.169-.572-.057-.836-.169-.505-.274-.705-.48-.359-.449-.464-.716a2.16 2.16 0 0 1-.15-.84c.012-.564.245-1.1.648-1.494s.944-.615 1.508-.615 1.105.221 1.508.615.636.931.648 1.494z" fill="#fff"/></svg>