<?xml version="1.0" encoding="utf-8"?><svg xmlns="http://www.w3.org/2000/svg" width="50" height="50" fill="none"><circle cx="25" cy="25" r="25" fill="#25d366"/><path fill-rule="evenodd" d="M31.228 27.053l-2.126-1.012c-.285-.104-.492-.155-.7.157s-.803 1.011-.984 1.218-.363.233-.674.079-1.314-.485-2.501-1.544c-.924-.825-1.549-1.843-1.73-2.155s-.02-.479.136-.634c.14-.139.311-.363.467-.544s.207-.312.311-.52.052-.388-.026-.544-.699-1.687-.959-2.31c-.252-.606-.509-.523-.699-.534l-.597-.011c-.207 0-.544.077-.829.389s-1.089 1.063-1.089 2.595 1.114 3.009 1.27 3.218 2.193 3.349 5.313 4.696a17.79 17.79 0 0 0 1.773.654c.745.238 1.424.204 1.959.123.597-.089 1.84-.753 2.1-1.479s.259-1.349.181-1.479-.285-.207-.597-.363h.001zm-5.675 7.749h-.004a10.33 10.33 0 0 1-5.267-1.442l-.377-.224-3.917 1.028 1.046-3.818-.246-.391a10.32 10.32 0 0 1-1.582-5.506c.002-5.704 4.643-10.345 10.351-10.345a10.27 10.27 0 0 1 7.314 3.033c.963.959 1.727 2.1 2.246 3.357s.785 2.603.781 3.963c-.002 5.704-4.643 10.346-10.345 10.346zm8.805-19.151c-1.153-1.161-2.525-2.081-4.037-2.708s-3.132-.947-4.769-.943c-6.86 0-12.445 5.584-12.447 12.447a12.42 12.42 0 0 0 1.661 6.223L13 37.12l6.598-1.731c1.825.995 3.871 1.516 5.949 1.516h.005A12.47 12.47 0 0 0 38 24.457a12.37 12.37 0 0 0-3.642-8.806z" fill="#fff"/></svg>