<?xml version="1.0" encoding="utf-8"?><svg xmlns="http://www.w3.org/2000/svg" width="50" height="50" fill="none"><circle cx="25" cy="25" r="25" fill="#ff4300"/><path fill-rule="evenodd" d="M38 25.5C38 32.403 32.403 38 25.5 38S13 32.403 13 25.5 18.597 13 25.5 13 38 18.597 38 25.5zm-4.492-.981c.202.289.317.629.329.981.006.344-.087.683-.266.978s-.438.532-.747.685a3.46 3.46 0 0 1 0 .55c0 2.8-3.263 5.075-7.288 5.075s-7.288-2.275-7.288-5.075a3.58 3.58 0 0 1 0-.55c-.238-.112-.45-.274-.62-.475a1.82 1.82 0 0 1-.364-.69c-.07-.254-.085-.52-.042-.779a1.82 1.82 0 0 1 .287-.726c.147-.218.34-.402.564-.539s.477-.223.738-.253a1.82 1.82 0 0 1 .776.078c.25.082.48.217.672.396 1.44-.977 3.135-1.511 4.875-1.538l.925-4.337c.01-.05.031-.098.06-.14s.066-.079.109-.106.091-.047.142-.056a.39.39 0 0 1 .152.003l3.063.613a1.25 1.25 0 0 1 1.531-.537 1.25 1.25 0 0 1 .772 1.427 1.25 1.25 0 0 1-1.287.988 1.25 1.25 0 0 1-1.179-1.115l-2.675-.562-.812 3.9a8.9 8.9 0 0 1 4.813 1.538c.19-.183.417-.322.666-.408s.513-.118.775-.092.516.107.743.24.423.313.574.529zm-11.96 1.537a1.25 1.25 0 0 0-.187.939 1.25 1.25 0 0 0 1.47.983 1.25 1.25 0 0 0 .796-.532 1.25 1.25 0 0 0-.345-1.734 1.25 1.25 0 0 0-1.734.345zm3.965 5.095c1.109.046 2.201-.244 3.088-.912a.35.35 0 0 0 .006-.494.35.35 0 0 0-.245-.105.35.35 0 0 0-.248.099 4.1 4.1 0 0 1-2.613.762 4.09 4.09 0 0 1-2.6-.788c-.065-.053-.147-.08-.231-.076s-.163.039-.222.098-.094.138-.098.222.023.166.076.231a4.8 4.8 0 0 0 3.087.962zm2.168-3.31c.206.137.435.26.682.26a1.25 1.25 0 0 0 .911-.379 1.25 1.25 0 0 0 .352-.921 1.25 1.25 0 0 0-.608-1.072 1.25 1.25 0 0 0-1.232-.03 1.25 1.25 0 0 0-.659 1.041 1.25 1.25 0 0 0 .554 1.101z" fill="#fff"/></svg>