<svg width="24" height="24" viewBox="0 0 24 24" fill="none" xmlns="http://www.w3.org/2000/svg">
<path d="M9.6 4.09756H14.4C14.4 3.47657 14.1471 2.88101 13.6971 2.4419C13.247 2.00279 12.6365 1.7561 12 1.7561C11.3635 1.7561 10.753 2.00279 10.3029 2.4419C9.85286 2.88101 9.6 3.47657 9.6 4.09756ZM7.8 4.09756C7.8 3.55946 7.90864 3.02663 8.11971 2.52949C8.33078 2.03235 8.64015 1.58064 9.03015 1.20015C9.42016 0.819654 9.88316 0.51783 10.3927 0.311908C10.9023 0.105987 11.4484 0 12 0C12.5516 0 13.0977 0.105987 13.6073 0.311908C14.1168 0.51783 14.5798 0.819654 14.9698 1.20015C15.3599 1.58064 15.6692 2.03235 15.8803 2.52949C16.0914 3.02663 16.2 3.55946 16.2 4.09756H23.1C23.3387 4.09756 23.5676 4.19007 23.7364 4.35474C23.9052 4.5194 24 4.74274 24 4.97561C24 5.20848 23.9052 5.43182 23.7364 5.59648C23.5676 5.76115 23.3387 5.85366 23.1 5.85366H21.516L20.112 20.0324C20.0043 21.1188 19.4857 22.1271 18.6572 22.8607C17.8288 23.5942 16.75 24.0004 15.6312 24H8.3688C7.25024 24.0001 6.17172 23.5938 5.34354 22.8603C4.51536 22.1268 3.99688 21.1186 3.8892 20.0324L2.484 5.85366H0.9C0.661305 5.85366 0.432387 5.76115 0.263604 5.59648C0.094821 5.43182 0 5.20848 0 4.97561C0 4.74274 0.094821 4.5194 0.263604 4.35474C0.432387 4.19007 0.661305 4.09756 0.9 4.09756H7.8ZM10.2 9.65854C10.2 9.42566 10.1052 9.20233 9.9364 9.03766C9.76761 8.873 9.5387 8.78049 9.3 8.78049C9.06131 8.78049 8.83239 8.873 8.6636 9.03766C8.49482 9.20233 8.4 9.42566 8.4 9.65854V18.439C8.4 18.6719 8.49482 18.8952 8.6636 19.0599C8.83239 19.2246 9.06131 19.3171 9.3 19.3171C9.5387 19.3171 9.76761 19.2246 9.9364 19.0599C10.1052 18.8952 10.2 18.6719 10.2 18.439V9.65854ZM14.7 8.78049C14.9387 8.78049 15.1676 8.873 15.3364 9.03766C15.5052 9.20233 15.6 9.42566 15.6 9.65854V18.439C15.6 18.6719 15.5052 18.8952 15.3364 19.0599C15.1676 19.2246 14.9387 19.3171 14.7 19.3171C14.4613 19.3171 14.2324 19.2246 14.0636 19.0599C13.8948 18.8952 13.8 18.6719 13.8 18.439V9.65854C13.8 9.42566 13.8948 9.20233 14.0636 9.03766C14.2324 8.873 14.4613 8.78049 14.7 8.78049ZM5.6808 19.8638C5.74552 20.5155 6.05669 21.1203 6.55364 21.5603C7.05059 22.0003 7.6977 22.244 8.3688 22.2439H15.6312C16.3023 22.244 16.9494 22.0003 17.4464 21.5603C17.9433 21.1203 18.2545 20.5155 18.3192 19.8638L19.7088 5.85366H4.2912L5.6808 19.8638Z" fill="#7F1D1D"/>
</svg>
