<?xml version="1.0" encoding="utf-8"?><svg xmlns="http://www.w3.org/2000/svg" viewBox="0 0 14 14"><style><![CDATA[.B{stroke-linejoin:round}.C{stroke-miterlimit:10}.D{stroke-linecap:round}]]></style><g fill="none" stroke="#FFFFFF" stroke-width=".65" class="B C"><g class="D"><path d="M12.1 6.3v3.9a.94.94 0 0 1-1 1H9.8a1.92 1.92 0 0 0-1.2.4l-2.4 1.6-2.4-1.6c-.4-.2-.8-.4-1.2-.4H1.5c-.5 0-1-.4-1-1v-6a.94.94 0 0 1 1-1h8"/><path d="M2.4 9.3h7.7m-7.7-2h5.2M2.4 5.2h5.7"/></g><path d="M10.5 6.9L8.6 8.3 9 6l2.3-3.7 1.5.9zm2.8-4.4l-1.4-.9.3-.4c.2-.3.5-.3.7-.2l.5.3c.3.2.3.5.2.7l-.3.5z"/><path d="M9 5.9l1.5.9" class="D"/></g></svg>