<?xml version="1.0" encoding="utf-8"?><svg xmlns="http://www.w3.org/2000/svg" viewBox="0 0 24 24" xmlns:v="https://vecta.io/nano"><path d="M12,0A12,12,0,1,1,0,12,12,12,0,0,1,12,0Zm3.69,16H8.29c.64,4.27,2.24,7,3.71,7s3.08-2.73,3.71-7m6.54,0H16.73a13.84,13.84,0,0,1-2.49,6.77,11,11,0,0,0,8-6.77m-15,0H1.75a11,11,0,0,0,8,6.77A13.84,13.84,0,0,1,7.28,16M7.15,9H1.42a11.07,11.07,0,0,0,0,6H7.15a30,30,0,0,1,0-6m8.69,0H8.16a28,28,0,0,0,0,6h7.68a28,28,0,0,0,0-6m6.75,0H16.85a29.62,29.62,0,0,1,0,6h5.74a11.06,11.06,0,0,0,0-6M9.76,1.23A11,11,0,0,0,1.75,8H7.28A13.88,13.88,0,0,1,9.76,1.23m6,6.77C15.08,3.73,13.47,1,12,1S8.93,3.73,8.29,8ZM14.24,1.23A13.88,13.88,0,0,1,16.73,8h5.52a11,11,0,0,0-8-6.77" fill="#A8A29E" fill-rule="evenodd"/></svg>