<?xml version="1.0" encoding="utf-8"?><svg xmlns="http://www.w3.org/2000/svg" viewBox="0 0 110 40"><defs><linearGradient id="A" x1="16.84" y1="29" x2="16.84" y2="10.09" gradientUnits="userSpaceOnUse"><stop offset="0" stop-color="#fa233b"/><stop offset="1" stop-color="#fb5c74"/></linearGradient></defs><path d="M36.59 26.14h-3.66l-.88 2.59H30.5l3.5-9.59h1.61L39 28.73h-1.54zM33.31 25h2.9l-1.43-4.21h0zm13.2.24c0 2.17-1.17 3.57-2.92 3.57a2.39 2.39 0 0 1-2.2-1.22h0v3.47h-1.46v-9.32h1.38v1.17h0a2.49 2.49 0 0 1 2.23-1.24c1.79 0 2.97 1.4 2.97 3.57zm-1.48 0c0-1.41-.74-2.35-1.85-2.35s-1.83.95-1.83 2.35.74 2.35 1.83 2.35S45 26.67 45 25.24zm9.16 0c0 2.17-1.16 3.57-2.92 3.57a2.36 2.36 0 0 1-2.19-1.22h0v3.47h-1.47v-9.32H49v1.17h0a2.49 2.49 0 0 1 2.23-1.24c1.77 0 2.96 1.4 2.96 3.57zm-1.47 0c0-1.41-.74-2.35-1.85-2.35S49 23.84 49 25.24s.74 2.35 1.83 2.35 1.89-.92 1.89-2.35zm2.63-6.1h1.43v9.59h-1.43zm8.9 7.54a2.8 2.8 0 0 1-3 2.14c-2 0-3.29-1.37-3.29-3.55s1.27-3.62 3.23-3.62 3.14 1.35 3.14 3.45v.49h-4.94v.09a1.82 1.82 0 0 0 1.88 2 1.57 1.57 0 0 0 1.61-1zm-4.85-2.09h3.49a1.68 1.68 0 0 0-1.71-1.77 1.76 1.76 0 0 0-1.78 1.77zm17.31 4.14v-7.06h0l-2.89 7h-1.1l-2.9-7h0v7.06h-1.46v-9.59h1.72l3.1 7.57h.06l3.09-7.57h1.73v9.59zm9 0h-1.37v-1.2h0a2.18 2.18 0 0 1-2.17 1.28 2.33 2.33 0 0 1-2.45-2.58v-4.49h1.43V26c0 1.06.5 1.63 1.5 1.63a1.62 1.62 0 0 0 1.66-1.81v-4h1.43zm4.08-7.06c1.55 0 2.66.85 2.69 2.09h-1.35c-.06-.62-.58-1-1.38-1s-1.29.37-1.29.91.34.69 1.07.87l1.17.27c1.41.34 1.94.86 1.94 1.89 0 1.26-1.2 2.13-2.9 2.13S87 28 86.88 26.7h1.41c.11.68.65 1 1.52 1s1.39-.36 1.39-.91-.26-.67-1-.85l-1.2-.27c-1.27-.31-1.9-1-1.9-1.92-.05-1.24 1.06-2.08 2.69-2.08zm3.97-1.77a.84.84 0 1 1 .83.82.83.83 0 0 1-.83-.82zm.11 1.84h1.44v7h-1.44zm7.62 2.41a1.55 1.55 0 0 0-1.65-1.29c-1.11 0-1.84.93-1.84 2.38s.74 2.38 1.84 2.38a1.51 1.51 0 0 0 1.64-1.25h1.38a2.8 2.8 0 0 1-3 2.45c-2 0-3.3-1.37-3.3-3.58s1.31-3.58 3.28-3.58a2.81 2.81 0 0 1 3 2.49z"/><g fill-rule="evenodd"><path d="M26.55 15.74V15v-.58a9.08 9.08 0 0 0-.11-1.28A4.41 4.41 0 0 0 26 12a4.46 4.46 0 0 0-.75-1 3.89 3.89 0 0 0-1-.75A4.2 4.2 0 0 0 23 9.79a9.09 9.09 0 0 0-1.27-.12h-9.8a9 9 0 0 0-1.27.12 4.2 4.2 0 0 0-1.21.4 3.89 3.89 0 0 0-1 .75 4.25 4.25 0 0 0-.75 1 4.3 4.3 0 0 0-.4 1.21 9.21 9.21 0 0 0-.11 1.28v.58 8.69.59a9.07 9.07 0 0 0 .11 1.27 4.41 4.41 0 0 0 .4 1.21 4.25 4.25 0 0 0 .75 1A4.2 4.2 0 0 0 10.66 29a9.09 9.09 0 0 0 1.27.12h9.83A7.69 7.69 0 0 0 23 29a3.92 3.92 0 0 0 1.21-.4A4.05 4.05 0 0 0 26 26.77a4.41 4.41 0 0 0 .4-1.21 9.2 9.2 0 0 0 .11-1.27v-.59-8z" fill="url(#A)"/><path d="M20.86 12.63l-.51.08-5.77 1.18h0a.79.79 0 0 0-.37.16.6.6 0 0 0-.19.37v.2 7.22a.66.66 0 0 1-.13.47.62.62 0 0 1-.42.22l-.38.07a7.55 7.55 0 0 0-1.06.27 2 2 0 0 0-.64.4 1.58 1.58 0 0 0-.4 1.21 1.53 1.53 0 0 0 .48 1 1.62 1.62 0 0 0 .7.37 2.56 2.56 0 0 0 1-.06 1.93 1.93 0 0 0 .67-.25 1.69 1.69 0 0 0 .54-.49 1.76 1.76 0 0 0 .28-.66 2.92 2.92 0 0 0 .06-.72v-6.3c0-.34.1-.43.37-.49l5-1c.31-.06.46 0 .46.35v4.27a.73.73 0 0 1-.11.48.7.7 0 0 1-.43.21l-.38.08a5.94 5.94 0 0 0-1.06.27 1.85 1.85 0 0 0-.63.4 1.51 1.51 0 0 0 .07 2.17 1.44 1.44 0 0 0 .71.35 2.54 2.54 0 0 0 1-.05 2 2 0 0 0 .67-.25 1.65 1.65 0 0 0 .53-.49 2 2 0 0 0 .38-.67 3.4 3.4 0 0 0 .05-.71v-9.14c0-.34-.18-.54-.49-.52z" fill="#fff"/></g><path d="M31 15.81V10h.91v5h2.76v.76zm5-4.89a.5.5 0 1 1 0-1 .5.5 0 1 1 0 1zm-.4 4.89v-4.19h.81v4.19zm1.69-.54l.39-.58a2.16 2.16 0 0 0 1.48.6c.62 0 .94-.24.94-.6s-.5-.55-1.06-.67c-.75-.17-1.62-.36-1.62-1.26 0-.67.6-1.25 1.67-1.25a2.48 2.48 0 0 1 1.68.6l-.37.55a1.75 1.75 0 0 0-1.3-.51c-.55 0-.9.21-.9.55s.47.48 1 .6c.76.17 1.68.37 1.68 1.33 0 .72-.62 1.29-1.78 1.29a2.59 2.59 0 0 1-1.83-.65zm5.81.65a.94.94 0 0 1-1.05-1V12.3h-.72v-.68H42v-1.15h.82v1.15h.89v.68h-.89v2.41c0 .3.15.51.43.51a.71.71 0 0 0 .45-.16l.21.59a1.25 1.25 0 0 1-.86.27zm1.26-2.21a2.16 2.16 0 0 1 2.2-2.2 2.11 2.11 0 0 1 2.14 2.27V14h-3.52a1.42 1.42 0 0 0 1.5 1.3 1.93 1.93 0 0 0 1.3-.49l.38.51a2.55 2.55 0 0 1-1.77.63 2.15 2.15 0 0 1-2.27-2.21zm2.2-1.55a1.32 1.32 0 0 0-1.35 1.25h2.69a1.27 1.27 0 0 0-1.38-1.25zm6.09 3.65v-2.68a.81.81 0 0 0-.93-.92 1.56 1.56 0 0 0-1.21.61v3h-.82v-4.2h.82v.59a2.12 2.12 0 0 1 1.55-.7 1.24 1.24 0 0 1 1.41 1.36v2.94zm6.33.11a2.13 2.13 0 0 1-2.22-2.21 2.22 2.22 0 0 1 4.44 0 2.12 2.12 0 0 1-2.26 2.21zm0-.7a1.38 1.38 0 0 0 1.37-1.51 1.37 1.37 0 1 0-2.73 0 1.39 1.39 0 0 0 1.32 1.51zm6.19.59v-2.68c0-.69-.38-.92-.94-.92a1.58 1.58 0 0 0-1.21.61v3h-.82v-4.2h.8v.59a2.13 2.13 0 0 1 1.56-.7A1.24 1.24 0 0 1 66 12.87v2.94z"/></svg>