<?xml version="1.0" encoding="utf-8"?><svg xmlns="http://www.w3.org/2000/svg" viewBox="0 0 18 16"><path d="M9 .8C5 .8 1.7 4 1.7 8c0 3.1 1.9 5.7 4.6 6.8a7.39 7.39 0 0 1 0-2.1c.1-.6.9-3.6.9-3.6S7 8.6 7 8c0-1 .6-1.8 1.3-1.8.6 0 .9.5.9 1 0 .6-.4 1.6-.6 2.4-.1.8.4 1.4 1.1 1.4C11 11 12 9.6 12 7.7c0-1.7-1.2-2.9-3-2.9-2.1 0-3.3 1.5-3.3 3.1 0 .6.2 1.3.5 1.7.1.1.1.1.1.2-.1.2-.2.7-.2.8s-.1.2-.2.1C5 10.3 4.4 9 4.4 7.9c0-2.3 1.7-4.4 4.8-4.4 2.5 0 4.5 1.8 4.5 4.2 0 2.5-1.6 4.5-3.8 4.5-.7 0-1.4-.4-1.7-.8l-.5 1.7c-.2.6-.6 1.4-.9 1.9.7.2 1.4.3 2.1.3 4 0 7.3-3.2 7.3-7.2C16.2 4 13 .8 9 .8" fill="#fff"/></svg>