<svg width="22" height="22" viewBox="0 0 22 22" fill="none" xmlns="http://www.w3.org/2000/svg">
<path fill-rule="evenodd" clip-rule="evenodd" d="M20.625 9.6251H12.375V1.37498C12.375 0.615584 11.7594 0 11 0C10.2407 0 9.62507 0.615584 9.62507 1.37498V9.62502H1.37512C0.615731 9.62502 0 10.2406 0 11C0 11.7594 0.615731 12.375 1.37512 12.375H9.62507V20.625C9.62507 21.3844 10.2407 22 11 22C11.7594 22 12.375 21.3844 12.375 20.625V12.375H20.625C21.3844 12.375 22 11.7593 22 11C22.0001 10.2407 21.3844 9.6251 20.625 9.6251Z" fill="#e7e5e4"/>
</svg>
