<?xml version="1.0" encoding="utf-8"?><svg xmlns="http://www.w3.org/2000/svg" viewBox="0 0 14 14"><circle cx="7" cy="7" r="7" fill="#7f1d1d"/><path d="M6,7.73a.8.8,0,0,1,.84-.83,2.9,2.9,0,0,0,1-.16,1.49,1.49,0,0,0,.71-.55,1.75,1.75,0,0,0,.26-1,1.46,1.46,0,0,0-.22-.81A1.47,1.47,0,0,0,8,3.86a1.74,1.74,0,0,0-.87-.2,1.94,1.94,0,0,0-.71.13,2.13,2.13,0,0,0-.6.31,1.3,1.3,0,0,1-.52.27.69.69,0,0,1-.62-.13.83.83,0,0,1-.35-.58A.75.75,0,0,1,4.58,3a3.56,3.56,0,0,1,1.14-.78A3.76,3.76,0,0,1,7.12,2a3.42,3.42,0,0,1,1.69.45A3.2,3.2,0,0,1,10,3.56a3,3,0,0,1,.45,1.62,3.07,3.07,0,0,1-.21,1.2,2.51,2.51,0,0,1-.57.9,2.73,2.73,0,0,1-.87.59,4,4,0,0,1-1.07.32h0v.5a.81.81,0,0,1-.23.59.84.84,0,0,1-1.16,0,.81.81,0,0,1-.23-.59ZM6.79,12A.76.76,0,0,1,6,11.34V11a.74.74,0,0,1,.67-.81H7a.74.74,0,0,1,.81.67.33.33,0,0,1,0,.14v.23A.75.75,0,0,1,7.1,12H6.79Z" fill="#fff"/></svg>