<?xml version="1.0" encoding="utf-8"?><svg xmlns="http://www.w3.org/2000/svg" width="20" height="19" fill="none"><path d="M13.408 13.102l5.569-5.614.071-.083a.76.76 0 0 0 .142-.5c-.013-.179-.088-.347-.213-.473L13.408.821l-.077-.067c-.446-.343-1.102-.013-1.102.595v2.703l-.279.019c-4.413.358-6.997 3.22-7.614 8.411-.079.666.666 1.084 1.149.642 1.772-1.622 3.604-2.63 5.505-3.033a9.41 9.41 0 0 1 .919-.149l.32-.029v2.66l.006.104c.074.575.754.845 1.173.424zm-1.367-7.765l1.427-.098v-2.58l4.268 4.3-4.268 4.303V8.524l-1.679.155h-.01c-2.109.232-4.099 1.098-5.978 2.541.369-1.699.999-2.978 1.828-3.893 1.028-1.136 2.464-1.832 4.413-1.991v.001zm-8.33-3.452a3.06 3.06 0 0 0-2.189.929C.941 3.409.615 4.216.615 5.058v10.154c0 .842.326 1.649.907 2.244a3.06 3.06 0 0 0 2.189.929h9.908a3.06 3.06 0 0 0 2.189-.929c.581-.595.907-1.402.907-2.244v-1.269c0-.168-.065-.33-.181-.449a.61.61 0 0 0-.876 0c-.116.119-.181.28-.181.449v1.269a1.93 1.93 0 0 1-.544 1.346c-.348.357-.821.558-1.313.558H3.711c-.493 0-.965-.201-1.314-.558a1.93 1.93 0 0 1-.544-1.346V5.058a1.93 1.93 0 0 1 .544-1.346c.348-.357.821-.558 1.314-.558h3.715a.61.61 0 0 0 .438-.186c.116-.119.181-.28.181-.449s-.065-.33-.181-.449a.61.61 0 0 0-.438-.186H3.711z" fill="#7f1d1d"/></svg>