<?xml version="1.0" encoding="utf-8"?><svg xmlns="http://www.w3.org/2000/svg" width="1920" zoomAndPan="magnify" viewBox="0 0 1440 810" height="1080" preserveAspectRatio="xMidYMid meet"><style><![CDATA[.B{clip-rule:nonzero}.C{fill:#262626}.D{fill:#fff}.E{fill:#7f1d1d}.F{fill:#a8a29e}]]></style><defs><filter x="0%" y="0%" width="100%" height="100%" id="A"><feColorMatrix values="0 0 0 0 1 0 0 0 0 1 0 0 0 0 1 0 0 0 1 0" color-interpolation-filters="sRGB"/></filter><mask id="B"><g filter="url(#A)"><path fill="#000" fill-opacity=".17" d="M-144-81h1728v972H-144z"/></g></mask><clipPath id="C"><path d="M.766.848H1332v694.371H.766zm0 0" class="B"/></clipPath><clipPath id="D"><path d="M3.016.848h1326.684c.598 0 1.172.238 1.594.66s.656.992.656 1.59v689.871a2.25 2.25 0 0 1-.656 1.59c-.422.422-.996.66-1.594.66H3.016c-.598 0-1.168-.238-1.59-.66s-.66-.996-.66-1.59V3.098c0-.598.238-1.168.66-1.59s.992-.66 1.59-.66zm0 0" class="B"/></clipPath><clipPath id="E"><path d="M0 0h1333v696H0z"/></clipPath><clipPath id="F"><path d="M52.98 38.973H1390v702.41H52.98zm0 0" class="B"/></clipPath><clipPath id="G"><path d="M54.48 38.973h1333.867c.395 0 .777.16 1.059.441s.441.66.441 1.059v699.41c0 .398-.16.777-.441 1.059s-.664.441-1.059.441H54.48a1.49 1.49 0 0 1-1.062-.441c-.281-.281-.437-.66-.437-1.059V40.473c0-.398.156-.777.438-1.059s.664-.441 1.063-.441zm0 0" class="B"/></clipPath><clipPath id="H"><path d="M52.988 38.973H1389.48v702.75H52.988zm0 0" class="B"/></clipPath><clipPath id="I"><path d="M54.488 38.973h1333.844c.398 0 .781.16 1.063.441s.438.66.438 1.059v699.398a1.5 1.5 0 0 1-1.5 1.5H54.488a1.5 1.5 0 0 1-1.5-1.5V40.473c0-.398.156-.777.438-1.059s.664-.441 1.063-.441zm0 0" class="B"/></clipPath><clipPath id="J"><path d="M52.98 40.477H1390v71.16H52.98zm0 0" class="B"/></clipPath><clipPath id="K"><path d="M53.73 40.477h1335.367a.75.75 0 0 1 .527.219c.141.141.223.332.223.531v69.66c0 .199-.082.391-.223.531a.75.75 0 0 1-.527.219H53.73a.75.75 0 0 1-.75-.75v-69.66a.75.75 0 0 1 .75-.75zm0 0" class="B"/></clipPath><clipPath id="L"><path d="M289.512 259.063h1073.824v91.297H289.512zm0 0" class="B"/></clipPath><clipPath id="M"><path d="M290.262 259.063h1072.25a.75.75 0 0 1 .75.75v89.797a.75.75 0 0 1-.75.75H290.262a.75.75 0 0 1-.75-.75v-89.797a.75.75 0 0 1 .75-.75zm0 0" class="B"/></clipPath><clipPath id="N"><path d="M289.512 350.359h1073.953v120.008H289.512zm0 0" class="B"/></clipPath><clipPath id="O"><path d="M290.262 350.359h1072.25a.75.75 0 0 1 .75.75v118.508a.75.75 0 0 1-.75.75H290.262a.75.75 0 0 1-.75-.75V351.109a.75.75 0 0 1 .75-.75zm0 0" class="B"/></clipPath><clipPath id="P"><path d="M289.512 470.367h1073.953v120.004H289.512zm0 0" class="B"/></clipPath><clipPath id="Q"><path d="M290.262 470.367h1072.25a.75.75 0 0 1 .75.75v118.504a.75.75 0 0 1-.75.75H290.262a.75.75 0 0 1-.75-.75V471.117a.75.75 0 0 1 .75-.75zm0 0" class="B"/></clipPath><clipPath id="R"><path d="M289.512 590.371h1073.953v120.004H289.512zm0 0" class="B"/></clipPath><clipPath id="S"><path d="M290.262 590.371h1072.25a.75.75 0 0 1 .75.75v118.504a.75.75 0 0 1-.75.75H290.262a.75.75 0 0 1-.75-.75V591.121a.75.75 0 0 1 .75-.75zm0 0" class="B"/></clipPath><clipPath id="T"><path d="M337.367 290.758H465.34v27.906H337.367zm0 0" class="B"/></clipPath><clipPath id="U"><path d="M340.367 290.758h121.887a3 3 0 0 1 3 3v21.906a3 3 0 0 1-3 3H340.367a3 3 0 0 1-3-3v-21.906a3 3 0 0 1 3-3zm0 0" class="B"/></clipPath><clipPath id="V"><path d="M1003.176 291.938h127.969v27.902h-127.969zm0 0" class="B"/></clipPath><clipPath id="W"><path d="M1006.176 291.938h121.887a3 3 0 0 1 3 3v21.902a3 3 0 0 1-3 3h-121.887a3 3 0 0 1-3-3v-21.902a3 3 0 0 1 3-3zm0 0" class="B"/></clipPath><clipPath id="X"><path d="M337.367 399.59H465.34v27.902H337.367zm0 0" class="B"/></clipPath><clipPath id="Y"><path d="M340.367 399.59h121.887a3 3 0 0 1 3 3v21.902a3 3 0 0 1-3 3H340.367a3 3 0 0 1-3-3V402.59a3 3 0 0 1 3-3zm0 0" class="B"/></clipPath><clipPath id="Z"><path d="M1003.176 399.59h127.969v27.902h-127.969zm0 0" class="B"/></clipPath><clipPath id="a"><path d="M1006.176 399.59h121.887a3 3 0 0 1 3 3v21.902a3 3 0 0 1-3 3h-121.887a3 3 0 0 1-3-3V402.59a3 3 0 0 1 3-3zm0 0" class="B"/></clipPath><clipPath id="b"><path d="M337.367 522.594H465.34V550.5H337.367zm0 0" class="B"/></clipPath><clipPath id="c"><path d="M340.367 522.594h121.887a3 3 0 0 1 3 3V547.5a3 3 0 0 1-3 3H340.367a3 3 0 0 1-3-3v-21.906a3 3 0 0 1 3-3zm0 0" class="B"/></clipPath><clipPath id="d"><path d="M1001.547 517.391h127.969v27.906h-127.969zm0 0" class="B"/></clipPath><clipPath id="e"><path d="M1004.547 517.391h121.887a3 3 0 0 1 3 3v21.906a3 3 0 0 1-3 3h-121.887a3 3 0 0 1-3-3v-21.906a3 3 0 0 1 3-3zm0 0" class="B"/></clipPath><clipPath id="f"><path d="M1189.504 392.734h42.715v37.469h-42.715zm0 0" class="B"/></clipPath><clipPath id="g"><path d="M1191.195 398.84c-3.457 5.699-1.023 11.242 2.039 14.188l17.902 17.176 17.523-17.117c2.848-3.164 3.941-6.523 3.336-10.262-.84-5.176-5.102-9.187-10.367-9.762-3.23-.348-6.352.566-8.785 2.59a11.5 11.5 0 0 0-1.754 1.816 12.29 12.29 0 0 0-2.117-2.055c-2.801-2.129-6.367-2.973-9.789-2.316-3.242.629-6.152 2.719-7.988 5.742zm0 0" class="B"/></clipPath><clipPath id="h"><path d="M1185.438 512.199h42.715v37.469h-42.715zm0 0" class="B"/></clipPath><clipPath id="i"><path d="M1187.129 518.305c-3.457 5.699-1.023 11.242 2.039 14.188l17.902 17.176 17.523-17.117c2.848-3.164 3.941-6.523 3.332-10.262-.836-5.176-5.098-9.187-10.363-9.762-3.23-.348-6.352.566-8.785 2.59a11.67 11.67 0 0 0-1.754 1.816 12.29 12.29 0 0 0-2.117-2.055c-2.801-2.129-6.367-2.973-9.789-2.316-3.246.629-6.156 2.719-7.988 5.742zm0 0" class="B"/></clipPath><clipPath id="j"><path d="M337.355 641.672h127.969v27.906H337.355zm0 0" class="B"/></clipPath><clipPath id="k"><path d="M340.355 641.672h121.887a3 3 0 0 1 3 3v21.906a3 3 0 0 1-3 3H340.355a3 3 0 0 1-3-3v-21.906a3 3 0 0 1 3-3zm0 0" class="B"/></clipPath><clipPath id="l"><path d="M1001.547 641.672h127.969v27.906h-127.969zm0 0" class="B"/></clipPath><clipPath id="m"><path d="M1004.547 641.672h121.887a3 3 0 0 1 3 3v21.906a3 3 0 0 1-3 3h-121.887a3 3 0 0 1-3-3v-21.906a3 3 0 0 1 3-3zm0 0" class="B"/></clipPath><clipPath id="n"><path d="M1185.438 634h42.715v37.363h-42.715zm0 0" class="B"/></clipPath><clipPath id="o"><path d="M1187.129 640.004c-3.457 5.695-1.023 11.242 2.039 14.184l17.902 17.176 17.523-17.113c2.848-3.164 3.941-6.523 3.332-10.266-.836-5.172-5.098-9.184-10.363-9.758-3.23-.348-6.352.566-8.785 2.59-.656.543-1.242 1.152-1.754 1.813a12.27 12.27 0 0 0-2.117-2.051c-2.801-2.129-6.367-2.973-9.789-2.316-3.246.625-6.156 2.719-7.988 5.742zm0 0" class="B"/></clipPath><clipPath id="p"><path d="M62.066 111.637h211.98v616.641H62.066zm0 0" class="B"/></clipPath><clipPath id="q"><path d="M62.066 111.645h211.969v616.492H62.066zm0 0" class="B"/></clipPath><clipPath id="r"><path d="M94.93 192.324H216.57v26.523H94.93zm0 0" class="B"/></clipPath><clipPath id="s"><path d="M97.93 192.324h115.559a3 3 0 0 1 3 3v20.523a3 3 0 0 1-3 3H97.93a3 3 0 0 1-3-3v-20.523a3 3 0 0 1 3-3zm0 0" class="B"/></clipPath><clipPath id="t"><path d="M94.93 254.863H216.57v26.523H94.93zm0 0" class="B"/></clipPath><clipPath id="u"><path d="M97.93 254.863h115.559a3 3 0 0 1 3 3v20.523a3 3 0 0 1-3 3H97.93a3 3 0 0 1-3-3v-20.523a3 3 0 0 1 3-3zm0 0" class="B"/></clipPath><clipPath id="v"><path d="M94.93 325.898H216.57v26.523H94.93zm0 0" class="B"/></clipPath><clipPath id="w"><path d="M97.93 325.898h115.559a3 3 0 0 1 3 3v20.523a3 3 0 0 1-3 3H97.93a3 3 0 0 1-3-3v-20.523a3 3 0 0 1 3-3zm0 0" class="B"/></clipPath><clipPath id="x"><path d="M94.93 388.438H216.57v26.523H94.93zm0 0" class="B"/></clipPath><clipPath id="y"><path d="M97.93 388.438h115.559a3 3 0 0 1 2.121.879c.563.563.879 1.328.879 2.121v20.523c0 .797-.316 1.559-.879 2.125s-1.324.875-2.121.875H97.93c-.797 0-1.559-.312-2.121-.875s-.879-1.328-.879-2.125v-20.523c0-.793.316-1.559.879-2.121a3 3 0 0 1 2.121-.879zm0 0" class="B"/></clipPath><clipPath id="z"><path d="M583.754 281.348h46.727v46.727h-46.727zm0 0" class="B"/></clipPath><clipPath id="AA"><path d="M607.117 281.348c-12.902 0-23.363 10.461-23.363 23.363s10.461 23.363 23.363 23.363 23.363-10.461 23.363-23.363-10.461-23.363-23.363-23.363zm0 0" class="B"/></clipPath><clipPath id="AB"><path d="M583.754 390.18h46.727v46.727h-46.727zm0 0" class="B"/></clipPath><clipPath id="AC"><path d="M607.117 390.18c-12.902 0-23.363 10.457-23.363 23.363s10.461 23.363 23.363 23.363 23.363-10.461 23.363-23.363-10.461-23.363-23.363-23.363zm0 0" class="B"/></clipPath><clipPath id="AD"><path d="M583.754 513.184h46.727v46.727h-46.727zm0 0" class="B"/></clipPath><clipPath id="AE"><path d="M607.117 513.184c-12.902 0-23.363 10.461-23.363 23.363s10.461 23.363 23.363 23.363 23.363-10.461 23.363-23.363-10.461-23.363-23.363-23.363zm0 0" class="B"/></clipPath><clipPath id="AF"><path d="M583.754 627.012h46.727v46.727h-46.727zm0 0" class="B"/></clipPath><clipPath id="AG"><path d="M607.117 627.012c-12.902 0-23.363 10.461-23.363 23.363s10.461 23.363 23.363 23.363 23.363-10.461 23.363-23.363-10.461-23.363-23.363-23.363zm0 0" class="B"/></clipPath><clipPath id="AH"><path d="M804.078 295.641h13.574v46.762h-13.574zm0 0" class="B"/></clipPath><clipPath id="AI"><path d="M817.652 299.391v39.23a3.75 3.75 0 0 1-3.75 3.75h-6.074a3.75 3.75 0 0 1-3.75-3.75v-39.23a3.75 3.75 0 0 1 3.75-3.75h6.074a3.75 3.75 0 0 1 3.75 3.75zm0 0" class="B"/></clipPath><clipPath id="AJ"><path d="M818.531 281.758h13.574v60.652h-13.574zm0 0" class="B"/></clipPath><clipPath id="AK"><path d="M832.105 285.508v53.109a3.75 3.75 0 0 1-3.75 3.75h-6.074a3.75 3.75 0 0 1-3.75-3.75v-53.109a3.75 3.75 0 0 1 3.75-3.75h6.074a3.75 3.75 0 0 1 3.75 3.75zm0 0" class="B"/></clipPath><clipPath id="AL"><path d="M833.031 267.059h13.57v75.336h-13.57zm0 0" class="B"/></clipPath><clipPath id="AM"><path d="M846.602 270.809v67.813a3.75 3.75 0 0 1-3.75 3.75h-6.07a3.75 3.75 0 0 1-3.75-3.75v-67.812a3.75 3.75 0 0 1 3.75-3.75h6.07a3.75 3.75 0 0 1 3.75 3.75zm0 0" class="B"/></clipPath><clipPath id="AN"><path d="M806.742 400.27h13.574V447h-13.574zm0 0" class="B"/></clipPath><clipPath id="AO"><path d="M820.316 404.02v39.23a3.75 3.75 0 0 1-3.75 3.75h-6.074a3.75 3.75 0 0 1-3.75-3.75v-39.23a3.75 3.75 0 0 1 3.75-3.75h6.074a3.75 3.75 0 0 1 3.75 3.75zm0 0" class="B"/></clipPath><clipPath id="AP"><path d="M821.195 386.387h13.574V447h-13.574zm0 0" class="B"/></clipPath><clipPath id="AQ"><path d="M834.77 390.137v53.109a3.75 3.75 0 0 1-3.75 3.75h-6.074a3.75 3.75 0 0 1-3.75-3.75v-53.109a3.75 3.75 0 0 1 3.75-3.75h6.074a3.75 3.75 0 0 1 3.75 3.75zm0 0" class="B"/></clipPath><clipPath id="AR"><path d="M804.078 517.465h13.574v46.762h-13.574zm0 0" class="B"/></clipPath><clipPath id="AS"><path d="M817.652 521.215v39.227a3.75 3.75 0 0 1-3.75 3.75h-6.074a3.75 3.75 0 0 1-3.75-3.75v-39.227a3.75 3.75 0 0 1 3.75-3.75h6.074a3.75 3.75 0 0 1 3.75 3.75zm0 0" class="B"/></clipPath><clipPath id="AT"><path d="M806.742 641.594h12.441v42.852h-12.441zm0 0" class="B"/></clipPath><clipPath id="AU"><path d="M819.184 645.344v35.32c0 .996-.398 1.949-1.102 2.652s-1.656 1.098-2.648 1.098h-4.941c-.992 0-1.945-.395-2.648-1.098s-1.102-1.656-1.102-2.652v-35.32c0-.996.398-1.949 1.102-2.652s1.656-1.098 2.648-1.098h4.941c.992 0 1.945.395 2.648 1.098s1.102 1.656 1.102 2.652zm0 0" class="B"/></clipPath><clipPath id="AV"><path d="M819.984 628.875h12.438v55.582h-12.437zm0 0" class="B"/></clipPath><clipPath id="AW"><path d="M832.422 632.625v48.043a3.75 3.75 0 0 1-1.098 2.652c-.703.703-1.66 1.098-2.652 1.098h-4.937a3.75 3.75 0 0 1-3.75-3.75v-48.043a3.75 3.75 0 0 1 3.75-3.75h4.938c.992 0 1.949.395 2.652 1.098a3.75 3.75 0 0 1 1.098 2.652zm0 0" class="B"/></clipPath><clipPath id="AX"><path d="M833.273 615.398h12.438v69.043h-12.437zm0 0" class="B"/></clipPath><clipPath id="AY"><path d="M845.711 619.148v61.52a3.75 3.75 0 0 1-3.75 3.75h-4.937a3.75 3.75 0 0 1-3.75-3.75v-61.52c0-.992.395-1.945 1.098-2.652a3.75 3.75 0 0 1 2.652-1.098h4.938a3.75 3.75 0 0 1 2.652 1.098c.703.707 1.098 1.66 1.098 2.652zm0 0" class="B"/></clipPath><clipPath id="AZ"><path d="M846.895 602.184h12.438v82.258h-12.437zm0 0" class="B"/></clipPath><clipPath id="Aa"><path d="M859.332 605.934v74.73a3.75 3.75 0 0 1-3.75 3.75h-4.937a3.75 3.75 0 0 1-3.75-3.75v-74.73c0-.992.395-1.949 1.098-2.652a3.75 3.75 0 0 1 2.652-1.098h4.938a3.75 3.75 0 0 1 2.652 1.098c.703.703 1.098 1.66 1.098 2.652zm0 0" class="B"/></clipPath><clipPath id="Ab"><path d="M289.512 198.648H417.48v27.902H289.512zm0 0" class="B"/></clipPath><clipPath id="Ac"><path d="M292.512 198.648h121.883a3 3 0 0 1 3 3v21.902a3 3 0 0 1-3 3H292.512c-1.66 0-3-1.34-3-3v-21.902a3 3 0 0 1 3-3zm0 0" class="B"/></clipPath><clipPath id="Ad"><path d="M433.145 199.656h127.973v27.906H433.145zm0 0" class="B"/></clipPath><clipPath id="Ae"><path d="M436.145 199.656h121.887a3 3 0 0 1 3 3v21.906a3 3 0 0 1-3 3H436.145a3 3 0 0 1-3-3v-21.906a3 3 0 0 1 3-3zm0 0" class="B"/></clipPath><clipPath id="Af"><path d="M576.781 198.648H704.75v27.902H576.781zm0 0" class="B"/></clipPath><clipPath id="Ag"><path d="M579.781 198.648h121.887a3 3 0 0 1 3 3v21.902a3 3 0 0 1-3 3H579.781a3 3 0 0 1-3-3v-21.902a3 3 0 0 1 3-3zm0 0" class="B"/></clipPath><clipPath id="Ah"><path d="M721.414 198.648h127.969v27.902H721.414zm0 0" class="B"/></clipPath><clipPath id="Ai"><path d="M724.414 198.648h121.883a3 3 0 0 1 3 3v21.902c0 1.66-1.34 3-3 3H724.414c-1.66 0-3-1.34-3-3v-21.902a3 3 0 0 1 3-3zm0 0" class="B"/></clipPath><clipPath id="Aj"><path d="M1285.988 51.578h48.75v48.75h-48.75zm0 0" class="B"/></clipPath><clipPath id="Ak"><path d="M868 177.641h65v69.75h-65zm0 0" class="B"/></clipPath><clipPath id="Al"><path d="M1270.094 388.438h47.25v47.25h-47.25zm0 0" class="B"/></clipPath><clipPath id="Am"><path d="M1270.094 507.297h47.25v47.25h-47.25zm0 0" class="B"/></clipPath><clipPath id="An"><path d="M1270.094 628.996h47.25v47.25h-47.25zm0 0" class="B"/></clipPath><path id="Ao" d="M289.512 470.367h1073.953v120.004H289.512zm0 0"/><path id="Ap" d="M1003.176 291.938h127.859v27.902h-127.859zm0 0"/><path id="Aq" d="M1001.547 517.391h127.859v27.906h-127.859zm0 0"/><path id="Ar" d="M1189.504 392.883h42.715v37.32h-42.715zm0 0"/><path id="As" d="M94.93 192.324h121.535v26.523H94.93zm0 0"/><path id="At" d="M583.754 281.348h46.727v46.727h-46.727zm0 0"/><path id="Au" d="M1317.344 435.688l-11.812-10.375-11.812 10.375v-47.25h23.625zm-27.562-45.281h-19.687v3.938h19.688zm0 9.844h-19.687v3.938h19.688zm0 9.844h-19.687v3.938h19.688zm0 9.844h-19.687v3.938h19.688zm0 0"/><path id="Av" d="M349.209 158.659c0 .105-.047.781-.141 2.031h-19.641c.352 1.605 1.188 2.875 2.5 3.813 1.32.938 2.969 1.406 4.938 1.406 1.344 0 2.535-.203 3.578-.609 1.051-.406 2.031-1.039 2.938-1.906l4 4.344c-2.449 2.805-6.023 4.203-10.719 4.203-2.93 0-5.516-.57-7.766-1.719s-3.992-2.727-5.219-4.75c-1.219-2.031-1.828-4.332-1.828-6.906 0-2.539.602-4.832 1.813-6.875s2.863-3.633 4.969-4.781 4.457-1.719 7.063-1.719c2.539 0 4.844.547 6.906 1.641s3.676 2.668 4.844 4.719c1.176 2.043 1.766 4.414 1.766 7.109zm-13.469-7.766c-1.699 0-3.133.484-4.297 1.453-1.156.961-1.859 2.277-2.109 3.953h12.781c-.25-1.645-.961-2.957-2.125-3.937-1.156-.977-2.574-1.469-4.25-1.469zm0 0"/><path id="Aw" d="M555.026 171.941c-2.156 0-4.266-.266-6.328-.797s-3.703-1.195-4.922-2l2.5-5.406c1.164.742 2.566 1.344 4.203 1.813 1.645.461 3.254.688 4.828.688 3.188 0 4.781-.785 4.781-2.359 0-.738-.437-1.27-1.312-1.594-.867-.32-2.199-.598-4-.828-2.125-.312-3.883-.676-5.266-1.094a8.33 8.33 0 0 1-3.594-2.234c-1.012-1.062-1.516-2.57-1.516-4.531 0-1.645.473-3.102 1.422-4.375s2.328-2.258 4.141-2.969c1.82-.707 3.973-1.062 6.453-1.062a24.94 24.94 0 0 1 5.469.609c1.82.406 3.332.965 4.531 1.672l-2.516 5.344c-2.281-1.281-4.777-1.922-7.484-1.922-1.605 0-2.812.227-3.625.672-.805.449-1.203 1.027-1.203 1.734 0 .813.43 1.383 1.297 1.703.875.313 2.258.617 4.156.906l5.219 1.141c1.352.398 2.523 1.125 3.516 2.188 1 1.063 1.5 2.543 1.5 4.438 0 1.617-.484 3.055-1.453 4.313-.961 1.25-2.367 2.227-4.219 2.922-1.844.688-4.039 1.031-6.578 1.031zm0 0"/></defs><g class="D"><path d="M-144-81h1728v972H-144z"/><path d="M-144-81h1728v972H-144z"/></g><g mask="url(#B)" class="C"><g transform="translate(71 59)"><g clip-path="url(#E)"><g clip-path="url(#C)"><g clip-path="url(#D)"><path d="M.766.848h1331.777v694.371H.766zm0 0"/></g></g></g></g></g><g clip-path="url(#F)"><g clip-path="url(#G)"><path fill="#fafaf9" d="M52.98 38.973h1336.223v702.41H52.98zm0 0"/></g></g><g clip-path="url(#H)"><g clip-path="url(#I)"><path fill="none" d="M54.488 38.973h1333.844c.398 0 .781.16 1.063.441s.438.66.438 1.059v699.398a1.5 1.5 0 0 1-1.5 1.5H54.488a1.5 1.5 0 0 1-1.5-1.5V40.473c0-.398.156-.777.438-1.059s.664-.441 1.063-.441zm0 0" stroke="#a8a29e" stroke-width="1.5"/></g></g><g clip-path="url(#J)" class="E"><g clip-path="url(#K)"><path d="M52.98 40.477h1336.77v71.16H52.98zm0 0"/></g></g><path d="M179.391 78.668a210.64 210.64 0 0 1-23.898 1.465v-3.84a.58.58 0 0 0-.176-.426c-.117-.117-.258-.176-.422-.176a206.98 206.98 0 0 1-22.754-1.43c-.164-.02-.312.02-.441.121s-.207.234-.23.398l-.156 8.824a.6.6 0 0 0 .137.449c.109.133.246.207.414.223 7.957.945 14.988 1.313 23 1.371.168.004.313-.051.438-.168s.188-.258.191-.426v-3.711a212.36 212.36 0 0 0 24.047-1.473.59.59 0 0 0 .406-.227.57.57 0 0 0 .129-.445v-.016a.59.59 0 0 0-.234-.398.58.58 0 0 0-.449-.117zm.063 13.051a210.58 210.58 0 0 1-23.895 1.465v-3.84a.58.58 0 0 0-.176-.426.59.59 0 0 0-.422-.176 207.05 207.05 0 0 1-22.758-1.43.58.58 0 0 0-.668.52l-.156 8.824a.58.58 0 0 0 .551.672c7.957.945 14.984 1.313 23 1.371.168.004.313-.051.438-.168s.188-.258.191-.43v-3.707c8.043-.035 16.059-.527 24.043-1.473a.59.59 0 0 0 .41-.227.57.57 0 0 0 .129-.445v-.016a.59.59 0 0 0-.687-.516zm-.062-26.133a209.7 209.7 0 0 1-23.898 1.469v-3.844c0-.164-.059-.305-.176-.422s-.258-.176-.422-.176a206.03 206.03 0 0 1-22.754-1.434c-.164-.02-.312.02-.441.121s-.207.234-.23.398l-.156 8.828c-.016.168.031.316.137.449s.246.203.414.223c7.957.941 14.988 1.309 23 1.371a.61.61 0 0 0 .438-.168.59.59 0 0 0 .191-.426v-3.711a211.46 211.46 0 0 0 24.047-1.477.6.6 0 0 0 .406-.223.58.58 0 0 0 .129-.445v-.016a.59.59 0 0 0-.234-.402.61.61 0 0 0-.449-.117zm.319-9.516c0 .086-.039.172-.117.258s-.191.172-.344.254a4.46 4.46 0 0 1-.574.25 8.88 8.88 0 0 1-.793.242l-1.008.234-1.211.219-1.406.207-1.582.191-1.746.172-1.895.156-2.02.129-2.133.113-2.219.086-2.285.063-2.332.035-2.355.016a156.97 156.97 0 0 1-2.352-.016l-2.332-.035-2.285-.062-2.219-.086-2.133-.113-2.02-.129-1.895-.156-1.746-.172-1.582-.191-1.406-.207-1.211-.219-1.008-.234-.793-.242a3.92 3.92 0 0 1-.574-.25c-.152-.082-.27-.168-.344-.254s-.117-.172-.117-.258.039-.172.117-.258.191-.168.344-.254a4.39 4.39 0 0 1 .574-.25 8.98 8.98 0 0 1 .793-.242l1.008-.23 1.211-.223 1.406-.207 1.582-.191 1.746-.172 1.895-.152 2.02-.133 2.133-.109 2.219-.09 2.285-.062 2.332-.035 2.352-.016 2.355.016 2.332.035 2.285.063 2.219.09 2.133.109 2.02.133 1.895.152 1.746.172 1.582.191 1.406.207 1.211.223 1.008.23.793.242c.227.082.418.168.574.25s.266.168.344.254.117.172.117.258zm0 0" class="D"/><g clip-path="url(#L)" class="C"><g clip-path="url(#M)"><path d="M289.512 259.063h1073.82v91.297H289.512zm0 0"/></g></g><g clip-path="url(#N)" class="D"><g clip-path="url(#O)"><path d="M289.512 350.359h1073.953v120.008H289.512zm0 0"/></g></g><g clip-path="url(#P)"><g clip-path="url(#Q)"><use href="#Ao" fill="#e7e5e4"/></g></g><g clip-path="url(#R)" class="D"><g clip-path="url(#S)"><path d="M289.512 590.371h1073.953v120.004H289.512zm0 0"/></g></g><g clip-path="url(#T)" class="D"><g clip-path="url(#U)"><path d="M337.367 290.758H465.23v27.906H337.367zm0 0"/></g></g><g clip-path="url(#V)" class="D"><g clip-path="url(#W)"><use href="#Ap"/></g></g><g clip-path="url(#X)" class="C"><g clip-path="url(#Y)"><path d="M337.367 399.59H465.23v27.902H337.367zm0 0"/></g></g><g clip-path="url(#Z)" class="C"><g clip-path="url(#a)"><path d="M1003.176 399.59h127.859v27.902h-127.859zm0 0"/></g></g><g clip-path="url(#b)" class="C"><g clip-path="url(#c)"><path d="M337.367 522.594H465.23V550.5H337.367zm0 0"/></g></g><g clip-path="url(#d)" class="C"><g clip-path="url(#e)"><use href="#Aq"/></g></g><g clip-path="url(#f)" class="E"><g clip-path="url(#g)"><use href="#Ar"/></g></g><g clip-path="url(#h)" class="E"><g clip-path="url(#i)"><path d="M1185.438 512.348h42.715v37.32h-42.715zm0 0"/></g></g><g clip-path="url(#j)" class="C"><g clip-path="url(#k)"><path d="M337.355 641.672h127.859v27.906H337.355zm0 0"/></g></g><g clip-path="url(#l)" class="C"><g clip-path="url(#m)"><path d="M1001.547 641.672h127.859v27.906h-127.859zm0 0"/></g></g><g clip-path="url(#n)" class="E"><g clip-path="url(#o)"><path d="M1185.438 634.043h42.715v37.32h-42.715zm0 0"/></g></g><g clip-path="url(#p)" class="D"><path d="M62.066 111.637h211.98v616.887H62.066zm0 0"/></g><g clip-path="url(#q)"><path fill="none" d="M62.066 111.645h211.969v616.613H62.066zm0 0" stroke="#e7e5e4" stroke-width="1.5"/></g><g clip-path="url(#r)" class="C"><g clip-path="url(#s)"><use href="#As"/></g></g><g clip-path="url(#t)" class="C"><g clip-path="url(#u)"><path d="M94.93 254.863h121.535v26.523H94.93zm0 0"/></g></g><g clip-path="url(#v)" class="C"><g clip-path="url(#w)"><path d="M94.93 325.898h121.535v26.523H94.93zm0 0"/></g></g><g clip-path="url(#x)" class="C"><g clip-path="url(#y)"><path d="M94.93 388.438h121.535v26.523H94.93zm0 0"/></g></g><g clip-path="url(#z)" class="D"><g clip-path="url(#AA)"><use href="#At"/></g></g><g clip-path="url(#AB)" class="C"><g clip-path="url(#AC)"><path d="M583.754 390.18h46.727v46.727h-46.727zm0 0"/></g></g><g clip-path="url(#AD)" class="C"><g clip-path="url(#AE)"><path d="M583.754 513.184h46.727v46.727h-46.727zm0 0"/></g></g><g clip-path="url(#AF)" class="C"><g clip-path="url(#AG)"><path d="M583.754 627.012h46.727v46.727h-46.727zm0 0"/></g></g><g clip-path="url(#AH)" class="D"><g clip-path="url(#AI)"><path d="M817.652 295.641v46.711h-13.574v-46.711zm0 0"/></g></g><g clip-path="url(#AJ)" class="D"><g clip-path="url(#AK)"><path d="M832.105 281.758v60.598h-13.574v-60.598zm0 0"/></g></g><g clip-path="url(#AL)" class="D"><g clip-path="url(#AM)"><path d="M846.602 267.059v75.336h-13.57v-75.336zm0 0"/></g></g><g clip-path="url(#AN)" class="C"><g clip-path="url(#AO)"><path d="M820.316 400.27v46.711h-13.574V400.27zm0 0"/></g></g><g clip-path="url(#AP)" class="C"><g clip-path="url(#AQ)"><path d="M834.77 386.387v60.598h-13.574v-60.598zm0 0"/></g></g><g clip-path="url(#AR)" class="C"><g clip-path="url(#AS)"><path d="M817.652 517.465v46.707h-13.574v-46.707zm0 0"/></g></g><g clip-path="url(#AT)" class="C"><g clip-path="url(#AU)"><path d="M819.184 641.594v42.805h-12.441v-42.805zm0 0"/></g></g><g clip-path="url(#AV)" class="C"><g clip-path="url(#AW)"><path d="M832.422 628.875v55.531h-12.437v-55.531zm0 0"/></g></g><g clip-path="url(#AX)" class="C"><g clip-path="url(#AY)"><path d="M845.711 615.398v69.043h-12.437v-69.043zm0 0"/></g></g><g clip-path="url(#AZ)" class="C"><g clip-path="url(#Aa)"><path d="M859.332 602.184v82.207h-12.437v-82.207zm0 0"/></g></g><g clip-path="url(#Ab)" class="F"><g clip-path="url(#Ac)"><path d="M289.512 198.648h127.859v27.902H289.512zm0 0"/></g></g><g clip-path="url(#Ad)" class="F"><g clip-path="url(#Ae)"><path d="M433.145 199.656h127.863v27.906H433.145zm0 0"/></g></g><g clip-path="url(#Af)" class="F"><g clip-path="url(#Ag)"><path d="M576.781 198.648h127.859v27.902H576.781zm0 0"/></g></g><g clip-path="url(#Ah)" class="F"><g clip-path="url(#Ai)"><path d="M721.414 198.648h127.859v27.902H721.414zm0 0"/></g></g><g clip-path="url(#Aj)" class="D"><path d="M1332.227 54.09c-1.773-1.625-3.988-2.512-6.352-2.512h-31.023c-2.363 0-4.578.887-6.352 2.512-1.625 1.773-2.512 3.988-2.512 6.352v31.023c0 2.363.887 4.578 2.512 6.203 1.773 1.773 3.988 2.66 6.352 2.66h31.023c2.363 0 4.578-.887 6.203-2.512s2.512-3.84 2.512-6.203V60.441c.148-2.363-.738-4.578-2.363-6.352zm-1.477 37.375c0 1.328-.445 2.512-1.332 3.398s-2.066 1.328-3.395 1.328h-31.172c-1.328 0-2.512-.441-3.398-1.328s-1.328-2.07-1.328-3.398V60.441c0-2.656 2.066-4.727 4.727-4.727h31.023c2.66 0 4.727 2.07 4.727 4.727v31.023zm-6.207.59h-28.363c-1.18 0-2.066-.887-2.066-2.066v-3.25c0-1.184.887-2.07 2.066-2.07h28.219c1.18 0 2.066.887 2.066 2.07v3.25c.148 1.18-.738 2.066-1.922 2.066zm0-12.406h-28.363c-1.18 0-2.066-.887-2.066-2.07v-3.25c0-1.18.887-2.066 2.066-2.066h28.219c1.18 0 2.066.887 2.066 2.066v3.25c.148 1.184-.738 2.07-1.922 2.07zm0-12.41h-28.363c-1.18 0-2.066-.887-2.066-2.07v-3.25c0-1.18.887-2.066 2.066-2.066h28.219c1.18 0 2.066.887 2.066 2.066v3.25c.148 1.184-.738 2.07-1.922 2.07zm0 0"/></g><g clip-path="url(#Ak)" class="E"><path d="M868.852 177.641l26.156 44.031v17l11.77 8.719v-25.719l26.156-44.031zm53.617 5.668l-8.719 14.387h-26.156l-8.719-14.387zm0 0"/></g><g clip-path="url(#Al)" class="E"><use href="#Au"/></g><g clip-path="url(#Am)" class="E"><path d="M1317.344 554.547l-11.812-10.375-11.812 10.375v-47.25h23.625zm-27.562-45.281h-19.687v3.938h19.688zm0 9.844h-19.687v3.938h19.688zm0 9.844h-19.687v3.938h19.688zm0 9.844h-19.687v3.938h19.688zm0 0"/></g><g clip-path="url(#An)" class="E"><path d="M1317.344 676.246l-11.812-10.375-11.812 10.375v-47.25h23.625zm-27.562-45.281h-19.687v3.938h19.688zm0 9.844h-19.687v3.938h19.688zm0 9.844h-19.687v3.938h19.688zm0 9.844h-19.687v3.938h19.688zm0 0"/></g><path d="M304.619 172.128a27.78 27.78 0 0 1-7.75-1.078c-2.492-.727-4.496-1.672-6.016-2.828l2.656-5.891c1.445 1.063 3.164 1.918 5.156 2.563 2 .637 4 .953 6 .953 2.219 0 3.859-.328 4.922-.984s1.594-1.531 1.594-2.625c0-.801-.32-1.469-.953-2-.625-.531-1.43-.957-2.406-1.281s-2.309-.676-3.984-1.062l-6.328-1.828c-1.637-.613-3.043-1.598-4.219-2.953-1.168-1.352-1.75-3.156-1.75-5.406 0-1.957.531-3.734 1.594-5.328s2.66-2.852 4.797-3.781c2.133-.937 4.75-1.406 7.844-1.406a26.2 26.2 0 0 1 6.313.766c2.063.512 3.867 1.25 5.422 2.219l-2.422 5.938c-3.117-1.77-6.234-2.656-9.359-2.656-2.187 0-3.809.355-4.859 1.063-1.043.711-1.562 1.641-1.562 2.797 0 1.168.602 2.031 1.813 2.594s3.051 1.117 5.531 1.656l6.313 1.844a10.31 10.31 0 0 1 4.219 2.891c1.176 1.324 1.766 3.109 1.766 5.359 0 1.93-.543 3.688-1.625 5.281-1.074 1.594-2.687 2.859-4.844 3.797-2.156.926-4.777 1.391-7.859 1.391zm0 0"/><use href="#Av"/><path d="M364.712 145.191c4.02 0 7.109.961 9.266 2.875s3.234 4.809 3.234 8.672v14.813h-7.047v-3.234c-1.418 2.418-4.059 3.625-7.922 3.625-1.992 0-3.719-.34-5.187-1.016-1.461-.676-2.578-1.609-3.359-2.797-.773-1.195-1.156-2.551-1.156-4.062 0-2.406.906-4.301 2.719-5.687 1.82-1.383 4.633-2.078 8.438-2.078h5.984c0-1.645-.5-2.91-1.5-3.797s-2.496-1.328-4.484-1.328a12.99 12.99 0 0 0-4.078.656c-1.336.438-2.469 1.027-3.406 1.766l-2.703-5.266c1.414-1 3.113-1.77 5.094-2.312 1.977-.551 4.016-.828 6.109-.828zm-.578 21.672c1.281 0 2.422-.297 3.422-.891s1.707-1.469 2.125-2.625v-2.656h-5.172c-3.086 0-4.625 1.016-4.625 3.047 0 .961.375 1.719 1.125 2.281.758.563 1.801.844 3.125.844zm27.076-17.86c.895-1.25 2.109-2.195 3.641-2.844s3.289-.969 5.281-.969v6.953l-1.687-.094c-2.156 0-3.852.605-5.078 1.813-1.219 1.211-1.828 3.016-1.828 5.422v12.266h-7.531v-25.969h7.203zm26.162 22.938c-2.773 0-5.262-.57-7.469-1.719-2.199-1.145-3.918-2.727-5.156-4.75-1.242-2.031-1.859-4.332-1.859-6.906s.617-4.867 1.859-6.891c1.238-2.031 2.957-3.617 5.156-4.766 2.207-1.145 4.695-1.719 7.469-1.719 2.727 0 5.113.574 7.156 1.719s3.531 2.781 4.469 4.906l-5.844 3.125c-1.355-2.375-3.305-3.562-5.844-3.562-1.961 0-3.586.648-4.875 1.938-1.281 1.281-1.922 3.031-1.922 5.25s.641 3.977 1.922 5.266c1.289 1.281 2.914 1.922 4.875 1.922 2.582 0 4.531-1.187 5.844-3.562l5.844 3.188c-.937 2.055-2.43 3.664-4.469 4.828-2.043 1.156-4.43 1.734-7.156 1.734zm31.76-26.75c3.207 0 5.801.969 7.781 2.906 1.977 1.93 2.969 4.793 2.969 8.594v14.859h-7.531v-13.703c0-2.062-.453-3.598-1.359-4.609-.898-1.02-2.195-1.531-3.891-1.531-1.898 0-3.414.59-4.547 1.766-1.125 1.18-1.687 2.922-1.687 5.234v12.844h-7.531v-35.812h7.531v12.547c1-1 2.207-1.766 3.625-2.297s2.961-.797 4.641-.797zm53.275 26.359l-6.516-9.406h-7.187v9.406h-7.828v-33.781h14.625c3 0 5.598.5 7.797 1.5 2.207.992 3.906 2.402 5.094 4.234s1.781 4.008 1.781 6.516-.605 4.68-1.812 6.5c-1.199 1.813-2.906 3.203-5.125 4.172l7.578 10.859zm-.141-21.531c0-1.895-.617-3.348-1.844-4.359-1.219-1.02-3-1.531-5.344-1.531h-6.375v11.781h6.375c2.344 0 4.125-.516 5.344-1.547 1.227-1.031 1.844-2.477 1.844-4.344zm0 0"/><use href="#Av" x="192.048"/><use href="#Aw"/><path d="M598.077 145.581v25.969h-7.156v-3.094c-.992 1.125-2.18 1.992-3.562 2.594-1.387.594-2.883.891-4.484.891-3.418 0-6.125-.977-8.125-2.937-1.992-1.969-2.984-4.883-2.984-8.75v-14.672h7.531v13.563c0 4.188 1.754 6.281 5.266 6.281 1.801 0 3.25-.586 4.344-1.766s1.641-2.922 1.641-5.234v-12.844zm6.986-9.843h7.531v35.813h-7.531zm31.278 34.562c-.742.543-1.652.953-2.734 1.234-1.074.27-2.203.406-3.391.406-3.094 0-5.484-.785-7.172-2.359-1.687-1.582-2.531-3.898-2.531-6.953v-10.672h-4v-5.797h4v-6.312h7.531v6.313h6.469v5.797h-6.469v10.563c0 1.094.281 1.945.844 2.547.563.594 1.359.891 2.391.891 1.188 0 2.203-.32 3.047-.969zm0 0"/><use href="#Aw" x="94.31"/></svg>