<?xml version="1.0" encoding="utf-8"?><svg xmlns="http://www.w3.org/2000/svg" width="1920" zoomAndPan="magnify" viewBox="0 0 1440 810" height="1080" preserveAspectRatio="xMidYMid meet"><style><![CDATA[.B{clip-rule:nonzero}.C{fill:#262626}.D{fill:#7f1d1d}.E{fill:#fff}.F{stroke-linecap:round}.G{stroke-linejoin:round}.H{stroke:#7f1d1d}]]></style><defs><filter x="0%" y="0%" width="100%" height="100%" id="A"><feColorMatrix values="0 0 0 0 1 0 0 0 0 1 0 0 0 0 1 0 0 0 1 0" color-interpolation-filters="sRGB"/></filter><mask id="B"><g filter="url(#A)"><path fill="#000" fill-opacity=".17" d="M-144-81h1728v972H-144z"/></g></mask><clipPath id="C"><path d="M.414.805H1294V675.48H.414zm0 0" class="B"/></clipPath><clipPath id="D"><path d="M2.664.805H1291.59c.598 0 1.172.238 1.594.66s.656.992.656 1.59V673.23a2.25 2.25 0 0 1-.656 1.59c-.422.422-.996.66-1.594.66H2.664c-.598 0-1.172-.238-1.594-.66a2.25 2.25 0 0 1-.656-1.59V3.055c0-.598.234-1.168.656-1.59s.996-.66 1.594-.66zm0 0" class="B"/></clipPath><clipPath id="E"><path d="M0 0h1295v676H0z"/></clipPath><clipPath id="F"><path d="M64.16 57.52H1363v682.488H64.16zm0 0" class="B"/></clipPath><clipPath id="G"><path d="M65.66 57.52h1295.949a1.5 1.5 0 0 1 1.5 1.5v679.488a1.5 1.5 0 0 1-1.5 1.5H65.66a1.5 1.5 0 0 1-1.5-1.5V59.02a1.5 1.5 0 0 1 1.5-1.5zm0 0" class="B"/></clipPath><clipPath id="H"><path d="M64.164 57.52H1363.16V740H64.164zm0 0" class="B"/></clipPath><clipPath id="I"><path d="M65.664 57.52h1295.93a1.5 1.5 0 0 1 1.5 1.5v679.477a1.5 1.5 0 0 1-1.5 1.5H65.664a1.5 1.5 0 0 1-1.5-1.5V59.02a1.5 1.5 0 0 1 1.5-1.5zm0 0" class="B"/></clipPath><clipPath id="J"><path d="M64.16 58.98h1299.125v69.145H64.16zm0 0" class="B"/></clipPath><clipPath id="K"><path d="M64.91 58.98h1297.449a.75.75 0 0 1 .75.75v67.645a.75.75 0 0 1-.75.75H64.91a.75.75 0 0 1-.75-.75V59.73a.75.75 0 0 1 .75-.75zm0 0" class="B"/></clipPath><clipPath id="L"><path d="M1262.195 69.77h47.25v47.25h-47.25zm0 0" class="B"/></clipPath><clipPath id="M"><path d="M111.039 398.629H830v151.469H111.039zm0 0" class="B"/></clipPath><clipPath id="N"><path d="M111.789 398.629h717.477a.75.75 0 0 1 .75.75v149.969a.75.75 0 0 1-.75.75H111.789a.75.75 0 0 1-.75-.75V399.379a.75.75 0 0 1 .75-.75zm0 0" class="B"/></clipPath><clipPath id="O"><path d="M111.039 550.098H830V701.57H111.039zm0 0" class="B"/></clipPath><clipPath id="P"><path d="M111.789 550.098h717.477a.75.75 0 0 1 .75.75V700.82a.75.75 0 0 1-.75.75H111.789a.75.75 0 0 1-.75-.75V550.848a.75.75 0 0 1 .75-.75zm0 0" class="B"/></clipPath><clipPath id="Q"><path d="M171.445 460.766h161.523v35.219H171.445zm0 0" class="B"/></clipPath><clipPath id="R"><path d="M174.445 460.766h155.418a3 3 0 0 1 3 3v29.219a3 3 0 0 1-3 3H174.445a3 3 0 0 1-3-3v-29.219a3 3 0 0 1 3-3zm0 0" class="B"/></clipPath><clipPath id="S"><path d="M171.445 616.023h161.523v35.223H171.445zm0 0" class="B"/></clipPath><clipPath id="T"><path d="M174.445 616.023h155.418a3 3 0 0 1 3 3v29.223a3 3 0 0 1-3 3H174.445a3 3 0 0 1-3-3v-29.223a3 3 0 0 1 3-3zm0 0" class="B"/></clipPath><clipPath id="U"><path d="M482.434 448.887h58.98v58.977h-58.98zm0 0" class="B"/></clipPath><clipPath id="V"><path d="M511.922 448.887c-16.285 0-29.488 13.203-29.488 29.488s13.203 29.488 29.488 29.488 29.492-13.203 29.492-29.488-13.203-29.488-29.492-29.488zm0 0" class="B"/></clipPath><clipPath id="W"><path d="M482.434 604.145h58.98v58.98h-58.98zm0 0" class="B"/></clipPath><clipPath id="X"><path d="M511.922 604.145c-16.285 0-29.488 13.203-29.488 29.488s13.203 29.492 29.488 29.492 29.492-13.203 29.492-29.492-13.203-29.488-29.492-29.488zm0 0" class="B"/></clipPath><clipPath id="Y"><path d="M111.039 250.836H830v151.469H111.039zm0 0" class="B"/></clipPath><clipPath id="Z"><path d="M111.789 250.836h717.477a.75.75 0 0 1 .75.75v149.969a.75.75 0 0 1-.75.75H111.789a.75.75 0 0 1-.75-.75V251.586a.75.75 0 0 1 .75-.75zm0 0" class="B"/></clipPath><clipPath id="a"><path d="M171.445 316.758h161.523v35.223H171.445zm0 0" class="B"/></clipPath><clipPath id="b"><path d="M174.445 316.758h155.418a3 3 0 0 1 3 3v29.223a3 3 0 0 1-3 3H174.445a3 3 0 0 1-3-3v-29.223a3 3 0 0 1 3-3zm0 0" class="B"/></clipPath><clipPath id="c"><path d="M482.434 304.879h58.98v58.98h-58.98zm0 0" class="B"/></clipPath><clipPath id="d"><path d="M511.922 304.879c-16.285 0-29.488 13.203-29.488 29.492s13.203 29.488 29.488 29.488 29.492-13.203 29.492-29.488-13.203-29.492-29.492-29.492zm0 0" class="B"/></clipPath><clipPath id="e"><path d="M730.676 295.082h63v63h-63zm0 0" class="B"/></clipPath><clipPath id="f"><path d="M733.289 442.875h63v63h-63zm0 0" class="B"/></clipPath><clipPath id="g"><path d="M733.289 594.348h63v63h-63zm0 0" class="B"/></clipPath><clipPath id="h"><path d="M1018.262 473h152.992v226.375h-152.992zm0 0" class="B"/></clipPath><clipPath id="i"><path d="M1021.109 473.16h147.895c.598 0 1.168.238 1.59.66s.66.992.66 1.59v221.5c0 .598-.238 1.172-.66 1.594s-.992.656-1.59.656h-147.895c-.598 0-1.172-.234-1.594-.656s-.656-.996-.656-1.594v-221.5c0-.598.234-1.168.656-1.59s.996-.66 1.594-.66zm0 0" class="B"/></clipPath><clipPath id="j"><path d="M1097 628.652h63v61.5h-63zm0 0" class="B"/></clipPath><clipPath id="k"><path d="M849.152 473h152.992v226.375H849.152zm0 0" class="B"/></clipPath><clipPath id="l"><path d="M852 473.16h147.895c.598 0 1.168.238 1.59.66a2.23 2.23 0 0 1 .66 1.59v221.5a2.24 2.24 0 0 1-.66 1.594c-.422.422-.992.656-1.59.656H852c-.598 0-1.172-.234-1.594-.656s-.656-.996-.656-1.594v-221.5c0-.598.234-1.168.656-1.59s.996-.66 1.594-.66zm0 0" class="B"/></clipPath><clipPath id="m"><path d="M927 628.652h63v61.5h-63zm0 0" class="B"/></clipPath><clipPath id="n"><path d="M1190.754 647.719h51.75v51.75h-51.75zm0 0" class="B"/></clipPath><path id="o" d="M111.039 398.629h718.895v151.469H111.039zm0 0"/><path id="p" d="M171.445 616.023h161.387v35.223H171.445zm0 0"/><path id="q" d="M482.434 604.145h58.98v58.98h-58.98zm0 0"/><path id="r" d="M222.959 198.449h6.953v23.969h-6.953zm3.469-3.344c-1.273 0-2.309-.367-3.109-1.109-.805-.75-1.203-1.672-1.203-2.766 0-1.102.398-2.023 1.203-2.766.801-.75 1.836-1.125 3.109-1.125 1.281 0 2.32.359 3.125 1.078.801.711 1.203 1.602 1.203 2.672 0 1.156-.402 2.117-1.203 2.875s-1.844 1.141-3.125 1.141zm0 0"/><path id="s" d="M244.448 222.777a23.52 23.52 0 0 1-5.859-.734c-1.898-.488-3.406-1.109-4.531-1.859l2.313-4.984c1.07.688 2.363 1.246 3.875 1.672 1.52.43 3.008.641 4.469.641 2.938 0 4.406-.723 4.406-2.172 0-.687-.402-1.176-1.203-1.469-.805-.301-2.039-.555-3.703-.766-1.961-.301-3.578-.645-4.859-1.031-1.273-.383-2.375-1.066-3.312-2.047s-1.406-2.375-1.406-4.187a6.59 6.59 0 0 1 1.313-4.031c.875-1.176 2.148-2.086 3.828-2.734 1.688-.656 3.672-.984 5.953-.984 1.695 0 3.383.188 5.063.563 1.676.367 3.066.875 4.172 1.531l-2.328 4.938c-2.105-1.187-4.406-1.781-6.906-1.781-1.48 0-2.594.211-3.344.625-.742.418-1.109.953-1.109 1.609 0 .742.398 1.262 1.203 1.563.801.293 2.078.574 3.828.844 1.969.324 3.57.672 4.813 1.047 1.25.375 2.332 1.055 3.25 2.031.926.98 1.391 2.344 1.391 4.094 0 1.492-.449 2.813-1.344 3.969-.887 1.156-2.184 2.059-3.891 2.703-1.711.633-3.734.953-6.078.953zm0 0"/></defs><g class="E"><path d="M-144-81h1728v972H-144z"/><path d="M-144-81h1728v972H-144z"/></g><g mask="url(#B)" class="C"><g transform="translate(82 77)"><g clip-path="url(#E)"><g clip-path="url(#C)"><g clip-path="url(#D)"><path d="M.414.805h1294.004V675.48H.414zm0 0"/></g></g></g></g></g><g clip-path="url(#F)"><g clip-path="url(#G)"><path fill="#fafaf9" d="M64.16 57.52h1298.324v682.488H64.16zm0 0"/></g></g><g clip-path="url(#H)"><g clip-path="url(#I)"><path fill="none" d="M65.664 57.52h1295.93a1.5 1.5 0 0 1 1.5 1.5v679.477a1.5 1.5 0 0 1-1.5 1.5H65.664a1.5 1.5 0 0 1-1.5-1.5V59.02a1.5 1.5 0 0 1 1.5-1.5zm0 0" stroke="#a8a29e" stroke-width="1.5"/></g></g><g clip-path="url(#J)" class="D"><g clip-path="url(#K)"><path d="M64.16 58.98h1298.855v69.145H64.16zm0 0"/></g></g><path d="M191.16 96.195a219.79 219.79 0 0 1-24.984 1.531V93.71a.6.6 0 0 0-.184-.441.59.59 0 0 0-.441-.184 216.19 216.19 0 0 1-23.789-1.5.61.61 0 0 0-.461.129.59.59 0 0 0-.238.414l-.164 9.227a.62.62 0 0 0 .141.473.61.61 0 0 0 .434.23c8.32.988 15.668 1.371 24.047 1.434.176.004.328-.055.457-.176a.62.62 0 0 0 .199-.445v-3.879c8.41-.035 16.789-.551 25.137-1.543a.59.59 0 0 0 .426-.23c.113-.137.156-.293.141-.469v-.016c-.027-.172-.109-.312-.25-.418a.61.61 0 0 0-.469-.121zm.066 13.645a219.72 219.72 0 0 1-24.98 1.531v-4.016a.6.6 0 0 0-.184-.441c-.122-.121-.27-.184-.445-.187a215.23 215.23 0 0 1-23.789-1.496c-.168-.02-.324.023-.461.129a.6.6 0 0 0-.238.414l-.164 9.227a.63.63 0 0 0 .145.473.61.61 0 0 0 .434.23c8.316.988 15.668 1.371 24.043 1.434.176.004.328-.055.457-.176a.63.63 0 0 0 .203-.449v-3.875c8.406-.035 16.785-.551 25.137-1.543a.62.62 0 0 0 .426-.23c.11-.136.156-.293.137-.469v-.016c-.027-.172-.109-.312-.246-.418a.62.62 0 0 0-.473-.121zm-.066-27.32a219.79 219.79 0 0 1-24.984 1.531v-4.016a.6.6 0 0 0-.184-.441c-.122-.121-.27-.184-.441-.184a217.15 217.15 0 0 1-23.789-1.496c-.172-.023-.324.02-.461.125a.6.6 0 0 0-.238.418l-.164 9.227c-.02.176.031.332.141.469s.258.215.434.23c8.32.988 15.668 1.375 24.047 1.434.176.008.328-.051.457-.172a.61.61 0 0 0 .199-.449v-3.879a221.51 221.51 0 0 0 25.137-1.539.61.61 0 0 0 .426-.234c.113-.137.156-.293.141-.469v-.016c-.027-.172-.109-.312-.25-.418a.61.61 0 0 0-.469-.121zm.332-9.95c0 .09-.039.18-.117.27s-.203.176-.363.266-.359.176-.598.262a11.02 11.02 0 0 1-.832.254l-1.051.242-1.27.23-1.469.215-1.652.199-1.828.184-1.977.16-2.113.137-2.227.117-2.32.09-2.391.066-2.437.039-2.461.012a251.14 251.14 0 0 1-2.461-.012l-2.437-.039-2.391-.066-2.32-.09-2.227-.117-2.113-.137-1.98-.16-1.824-.184-1.656-.199-1.469-.215-1.266-.23-1.055-.242-.828-.254c-.238-.086-.437-.172-.602-.262a1.34 1.34 0 0 1-.359-.266.4.4 0 0 1-.121-.27.4.4 0 0 1 .121-.27c.082-.09.199-.176.359-.266s.363-.176.602-.262l.828-.254 1.055-.242 1.266-.23 1.469-.215 1.656-.199 1.824-.184 1.98-.16 2.113-.137 2.227-.117 2.32-.09 2.391-.066 2.438-.039 2.461-.012 2.461.012 2.438.039 2.391.066 2.32.09 2.227.117 2.113.137 1.977.16 1.828.184 1.652.199 1.469.215 1.27.23 1.051.242.832.254c.238.086.438.172.598.262s.281.176.363.266.117.18.117.27zm0 0" class="E"/><g clip-path="url(#L)" class="E"><path d="M1307.012 72.203c-1.719-1.574-3.867-2.434-6.156-2.434h-30.07c-2.289 0-4.437.859-6.156 2.434-1.574 1.719-2.434 3.867-2.434 6.156v30.07c0 2.289.859 4.438 2.434 6.012 1.719 1.719 3.867 2.578 6.156 2.578h30.07c2.289 0 4.438-.859 6.012-2.434s2.438-3.723 2.438-6.016V78.359c.141-2.289-.719-4.437-2.293-6.156zm-1.43 36.227c0 1.289-.43 2.434-1.289 3.293s-2.008 1.289-3.293 1.289h-30.215c-1.285 0-2.434-.43-3.293-1.289s-1.285-2.004-1.285-3.293v-30.07a4.52 4.52 0 0 1 4.578-4.582h30.07a4.52 4.52 0 0 1 4.582 4.582v30.07zm-6.016.57h-27.492c-1.145 0-2.004-.859-2.004-2.004v-3.148c0-1.145.859-2.004 2.004-2.004h27.348c1.148 0 2.008.859 2.008 2.004v3.148c.141 1.145-.719 2.004-1.863 2.004zm0-12.027h-27.492c-1.145 0-2.004-.859-2.004-2.004V91.82c0-1.145.859-2.004 2.004-2.004h27.348c1.148 0 2.008.859 2.008 2.004v3.148c.141 1.145-.719 2.004-1.863 2.004zm0-12.027h-27.492c-1.145 0-2.004-.859-2.004-2.004v-3.148c0-1.145.859-2.004 2.004-2.004h27.348c1.148 0 2.008.859 2.008 2.004v3.148c.141 1.145-.719 2.004-1.863 2.004zm0 0"/></g><g clip-path="url(#M)" class="E"><g clip-path="url(#N)"><use href="#o"/></g></g><g clip-path="url(#O)"><g clip-path="url(#P)"><path fill="#e7e5e4" d="M111.039 550.098h718.895V701.57H111.039zm0 0"/></g></g><g clip-path="url(#Q)" class="C"><g clip-path="url(#R)"><path d="M171.445 460.766h161.387v35.219H171.445zm0 0"/></g></g><g clip-path="url(#S)" class="C"><g clip-path="url(#T)"><use href="#p"/></g></g><g clip-path="url(#U)" class="C"><g clip-path="url(#V)"><path d="M482.434 448.887h58.98v58.977h-58.98zm0 0"/></g></g><g clip-path="url(#W)" class="C"><g clip-path="url(#X)"><use href="#q"/></g></g><g fill="none" class="F G H"><path d="M1115.629 389.859l-11.227-11.234-44.91 44.938-4.492 15.73 15.719-4.496zm-20.211-2.246l11.23 11.234zm-35.926 35.949l11.227 11.234zm0 0" stroke-width="4.549"/><g stroke-width="13.193"><path d="M946.5 263.918c-48.578 0-87.957 39.375-87.957 87.953s39.379 87.953 87.957 87.953 87.953-39.375 87.953-87.953-39.375-87.953-87.953-87.953zm0 0"/><path d="M878.52 407.687s19.605-25.031 67.98-25.031 67.988 25.031 67.988 25.031M946.5 351.871a26.4 26.4 0 0 0 18.656-7.727 26.39 26.39 0 0 0 7.73-18.66c0-6.996-2.781-13.707-7.73-18.656s-11.66-7.73-18.656-7.73a26.39 26.39 0 0 0-18.66 7.73 26.38 26.38 0 0 0-7.727 18.656c0 7 2.777 13.711 7.727 18.66a26.4 26.4 0 0 0 18.66 7.727zm0 0"/></g></g><path d="M143.116 222.418l-.031-18.719-9.187 15.422h-3.25l-9.141-15.016v18.313h-6.766v-31.187h5.969l11.672 19.375 11.5-19.375h5.922l.094 31.188zm37.473-23.969l-10.828 25.438c-1.094 2.758-2.453 4.703-4.078 5.828-1.617 1.133-3.57 1.703-5.859 1.703a12.29 12.29 0 0 1-3.703-.578c-1.211-.387-2.203-.922-2.984-1.609l2.547-4.937a6.11 6.11 0 0 0 1.844 1.109c.699.273 1.391.406 2.078.406.945 0 1.719-.234 2.313-.703.594-.461 1.129-1.219 1.609-2.281l.094-.234-10.391-24.141h7.172l6.734 16.266 6.781-16.266zm15.958-7.218h7.219v25.313h15.641v5.875h-22.859zm0 0"/><use href="#r"/><use href="#s"/><path d="M275.499 221.262c-.687.5-1.531.883-2.531 1.141a12.73 12.73 0 0 1-3.125.375c-2.855 0-5.062-.727-6.625-2.187-1.555-1.457-2.328-3.598-2.328-6.422v-9.844h-3.703v-5.344h3.703v-5.844h6.938v5.844h5.984v5.344h-5.984v9.766c0 1.012.258 1.793.781 2.344.52.543 1.258.813 2.219.813 1.094 0 2.023-.297 2.797-.891zm0 0"/><use href="#r" x="56.453"/><path d="M307.401 198.09c2.969 0 5.363.891 7.188 2.672 1.832 1.781 2.75 4.43 2.75 7.938v13.719h-6.953v-12.656c0-1.895-.418-3.312-1.25-4.25s-2.039-1.406-3.609-1.406c-1.75 0-3.148.543-4.187 1.625s-1.562 2.695-1.562 4.828v11.859h-6.953V198.45h6.641v2.797c.926-1.008 2.07-1.785 3.438-2.328 1.363-.551 2.863-.828 4.5-.828zm40.946.359v19.953c0 4.395-1.148 7.66-3.437 9.797-2.281 2.145-5.621 3.219-10.016 3.219-2.324 0-4.527-.281-6.609-.844-2.074-.562-3.793-1.383-5.156-2.453l2.766-4.984c1.008.82 2.285 1.477 3.828 1.969a14.94 14.94 0 0 0 4.641.75c2.406 0 4.176-.547 5.313-1.641 1.145-1.086 1.719-2.723 1.719-4.922v-1.016c-1.812 1.992-4.34 2.984-7.578 2.984-2.199 0-4.211-.484-6.031-1.453s-3.273-2.328-4.344-4.078-1.609-3.77-1.609-6.062c0-2.281.535-4.297 1.609-6.047a10.99 10.99 0 0 1 4.344-4.078c1.82-.969 3.832-1.453 6.031-1.453 3.477 0 6.125 1.141 7.938 3.422v-3.062zm-13.141 17.109c1.844 0 3.348-.539 4.516-1.625 1.176-1.082 1.766-2.504 1.766-4.266 0-1.75-.59-3.164-1.766-4.25-1.168-1.082-2.672-1.625-4.516-1.625s-3.359.543-4.547 1.625-1.781 2.5-1.781 4.25c0 1.762.594 3.184 1.781 4.266s2.703 1.625 4.547 1.625zm0 0"/><use href="#s" x="118.431"/><path d="M715.648 459.625l-11.113-11.109-44.441 44.445-4.445 15.555 15.555-4.445zm-20-2.223l11.109 11.113zm-35.555 35.559l11.109 11.109zm55.555 114.125l-11.113-11.113-44.441 44.445-4.445 15.555 15.555-4.441zm-20-2.223l11.109 11.109zm-35.555 35.555l11.109 11.113zm0 0" fill="none" stroke-width="4.5" class="F G H"/><g clip-path="url(#Y)"><g clip-path="url(#Z)"><path fill="#e7e5e4" d="M111.039 250.836h718.895v151.469H111.039zm0 0"/></g></g><g clip-path="url(#a)" class="C"><g clip-path="url(#b)"><path d="M171.445 316.758h161.387v35.223H171.445zm0 0"/></g></g><g clip-path="url(#c)" class="C"><g clip-path="url(#d)"><path d="M482.434 304.879h58.98v58.98h-58.98zm0 0"/></g></g><path fill="none" d="M715.648 307.82l-11.113-11.109-44.441 44.441-4.445 15.559 15.555-4.445zm-20-2.223l11.109 11.113zm-35.555 35.555l11.109 11.113zm0 0" stroke-width="4.5" class="F G H"/><g clip-path="url(#e)" class="D"><path d="M755.875 305.836h12.598c0-1.629-.664-3.191-1.844-4.344s-2.785-1.801-4.453-1.801a6.39 6.39 0 0 0-4.457 1.801c-1.18 1.152-1.844 2.715-1.844 4.344zm-4.727 0a10.51 10.51 0 0 1 .84-4.113c.555-1.305 1.367-2.492 2.391-3.492a11.06 11.06 0 0 1 3.574-2.328 11.24 11.24 0 0 1 4.223-.82c1.445 0 2.879.277 4.219.82a11.06 11.06 0 0 1 3.574 2.328c1.023 1 1.836 2.188 2.391 3.492a10.51 10.51 0 0 1 .84 4.113h18.113a2.4 2.4 0 0 1 1.668.676c.445.434.695 1.02.695 1.633s-.25 1.195-.695 1.629a2.4 2.4 0 0 1-1.668.676h-4.16l-3.684 37.219a11.43 11.43 0 0 1-3.82 7.422c-2.176 1.926-5.004 2.992-7.941 2.992h-19.066a11.99 11.99 0 0 1-7.941-2.992c-2.172-1.926-3.535-4.57-3.816-7.422l-3.687-37.219h-4.16a2.4 2.4 0 0 1-1.668-.676 2.27 2.27 0 0 1-.691-1.629c0-.613.246-1.199.691-1.633a2.4 2.4 0 0 1 1.668-.676zm6.301 14.598c0-.609-.25-1.195-.691-1.629a2.41 2.41 0 0 0-1.672-.676c-.625 0-1.227.246-1.672.676s-.691 1.02-.691 1.629v23.051a2.28 2.28 0 0 0 .691 1.629c.445.434 1.047.676 1.672.676a2.39 2.39 0 0 0 1.672-.676 2.28 2.28 0 0 0 .691-1.629zm11.813-2.305c.625 0 1.227.246 1.672.676s.691 1.02.691 1.629v23.051a2.28 2.28 0 0 1-.691 1.629c-.445.434-1.047.676-1.672.676s-1.227-.242-1.672-.676a2.28 2.28 0 0 1-.691-1.629v-23.051c0-.609.25-1.195.691-1.629s1.047-.676 1.672-.676zm-23.676 29.094a6.86 6.86 0 0 0 2.293 4.453 7.18 7.18 0 0 0 4.762 1.797h19.066a7.17 7.17 0 0 0 4.762-1.797c1.305-1.152 2.125-2.742 2.293-4.453l3.648-36.773h-40.473zm0 0"/></g><g clip-path="url(#f)" class="D"><path d="M758.488 453.633h12.602c0-1.633-.664-3.195-1.848-4.348a6.38 6.38 0 0 0-4.453-1.801 6.39 6.39 0 0 0-4.457 1.801c-1.18 1.152-1.844 2.715-1.844 4.348zm-4.727 0c0-1.414.285-2.812.84-4.117a10.73 10.73 0 0 1 2.391-3.488c1.023-1 2.238-1.793 3.578-2.332s2.77-.82 4.219-.82 2.879.277 4.219.82a11.01 11.01 0 0 1 3.574 2.332 10.67 10.67 0 0 1 2.391 3.488c.555 1.305.84 2.703.84 4.117h18.113c.625 0 1.227.242 1.672.676s.691 1.016.691 1.629-.25 1.195-.691 1.629-1.047.676-1.672.676h-4.156l-3.687 37.219c-.281 2.852-1.645 5.5-3.82 7.426a11.99 11.99 0 0 1-7.941 2.988h-19.062c-2.937 0-5.77-1.066-7.941-2.992a11.43 11.43 0 0 1-3.82-7.422l-3.687-37.219h-4.156c-.629 0-1.23-.242-1.672-.676a2.27 2.27 0 0 1-.691-1.629c0-.613.246-1.199.691-1.629s1.043-.676 1.672-.676zm6.301 14.598a2.29 2.29 0 0 0-.691-1.633c-.441-.43-1.043-.672-1.672-.672s-1.227.242-1.668.672-.691 1.02-.691 1.633v23.047c0 .613.246 1.199.691 1.629a2.38 2.38 0 0 0 1.668.676c.629 0 1.23-.242 1.672-.676s.691-1.016.691-1.629zm11.813-2.305c.629 0 1.227.242 1.672.672a2.29 2.29 0 0 1 .691 1.633v23.047c0 .613-.25 1.199-.691 1.629a2.39 2.39 0 0 1-1.672.676c-.625 0-1.227-.242-1.672-.676s-.691-1.016-.691-1.629V468.23a2.29 2.29 0 0 1 .691-1.633 2.41 2.41 0 0 1 1.672-.672zm-23.676 29.094c.172 1.711.988 3.297 2.293 4.453s3.004 1.793 4.766 1.793h19.063c1.762 0 3.461-.641 4.766-1.793s2.121-2.742 2.289-4.453l3.648-36.777h-40.473zm0 0"/></g><g clip-path="url(#g)" class="D"><path d="M758.488 605.102h12.602a6.06 6.06 0 0 0-1.848-4.344 6.38 6.38 0 0 0-4.453-1.801 6.39 6.39 0 0 0-4.457 1.801c-1.18 1.152-1.844 2.715-1.844 4.344zm-4.727 0a10.51 10.51 0 0 1 .84-4.113c.555-1.309 1.367-2.492 2.391-3.492a11.11 11.11 0 0 1 3.578-2.332 11.28 11.28 0 0 1 4.219-.816 11.31 11.31 0 0 1 4.219.816c1.336.543 2.551 1.336 3.574 2.332s1.836 2.184 2.391 3.492a10.51 10.51 0 0 1 .84 4.113h18.113c.625 0 1.227.242 1.672.676s.691 1.02.691 1.629a2.29 2.29 0 0 1-.691 1.633 2.41 2.41 0 0 1-1.672.672h-4.156l-3.687 37.223c-.281 2.852-1.645 5.496-3.82 7.422s-5.004 2.992-7.941 2.992h-19.062c-2.937 0-5.77-1.066-7.941-2.992s-3.535-4.574-3.82-7.422l-3.687-37.223h-4.156c-.629 0-1.23-.242-1.672-.672s-.691-1.02-.691-1.633a2.27 2.27 0 0 1 .691-1.629c.441-.434 1.043-.676 1.672-.676zm6.301 14.598c0-.609-.25-1.195-.691-1.629s-1.043-.676-1.672-.676a2.38 2.38 0 0 0-1.668.676 2.27 2.27 0 0 0-.691 1.629v23.051a2.27 2.27 0 0 0 .691 1.629 2.38 2.38 0 0 0 1.668.676c.629 0 1.23-.242 1.672-.676s.691-1.02.691-1.629zm11.813-2.305a2.39 2.39 0 0 1 1.672.676c.441.434.691 1.02.691 1.629v23.051c0 .609-.25 1.195-.691 1.629a2.39 2.39 0 0 1-1.672.676c-.625 0-1.227-.242-1.672-.676s-.691-1.02-.691-1.629v-23.051c0-.609.25-1.195.691-1.629s1.047-.676 1.672-.676zm-23.676 29.094a6.86 6.86 0 0 0 2.293 4.453 7.19 7.19 0 0 0 4.766 1.797h19.063a7.19 7.19 0 0 0 4.766-1.797c1.305-1.152 2.121-2.742 2.289-4.453l3.648-36.777h-40.473zm0 0"/></g><g clip-path="url(#h)" class="D"><g clip-path="url(#i)"><path d="M1018.859 473.16h152.395v226.215h-152.395zm0 0"/></g></g><g clip-path="url(#j)" class="E"><path d="M1159.078 659.402c0 8.156-3.27 15.98-9.086 21.746s-13.707 9.004-21.937 9.004-16.117-3.238-21.934-9.004-9.086-13.59-9.086-21.746 3.27-15.977 9.086-21.742 13.707-9.008 21.934-9.008 16.121 3.242 21.938 9.008 9.086 13.59 9.086 21.742zm-15.395-11.645a2.91 2.91 0 0 0-.969-.633c-.363-.145-.754-.215-1.145-.207s-.777.094-1.133.254-.676.387-.941.672l-13.469 17.008-8.117-8.051c-.551-.508-1.277-.785-2.031-.773s-1.473.316-2.008.844-.836 1.242-.848 1.988.266 1.469.777 2.016l10.262 10.176a2.91 2.91 0 0 0 .969.633c.359.145.75.215 1.141.211s.773-.094 1.129-.254a2.83 2.83 0 0 0 .945-.668l15.48-19.18c.527-.543.82-1.27.813-2.027s-.312-1.473-.852-2.008zm0 0"/></g><g clip-path="url(#k)" class="D"><g clip-path="url(#l)"><path d="M849.75 473.16h152.395v226.215H849.75zm0 0"/></g></g><g clip-path="url(#m)" class="E"><path d="M989.969 659.402c0 8.156-3.27 15.98-9.086 21.746s-13.707 9.004-21.937 9.004-16.117-3.238-21.934-9.004-9.086-13.59-9.086-21.746 3.27-15.977 9.086-21.742 13.707-9.008 21.934-9.008 16.121 3.242 21.938 9.008 9.086 13.59 9.086 21.742zm-15.395-11.645a2.91 2.91 0 0 0-.969-.633c-.363-.145-.754-.215-1.145-.207a2.92 2.92 0 0 0-1.133.254c-.355.156-.676.387-.941.672l-13.469 17.008-8.113-8.051c-.555-.508-1.281-.785-2.035-.773a2.93 2.93 0 0 0-2.004.844c-.535.531-.84 1.242-.852 1.988s.266 1.469.777 2.016l10.262 10.176a2.91 2.91 0 0 0 .969.633c.359.145.75.215 1.141.211a2.92 2.92 0 0 0 1.133-.254c.355-.156.676-.383.941-.668l15.48-19.18c.527-.543.82-1.27.813-2.027s-.312-1.473-.852-2.008zm0 0"/></g><g clip-path="url(#n)" class="D"><path d="M1239.27 670.359h-19.406v-19.406c0-1.785-1.449-3.234-3.234-3.234s-3.234 1.449-3.234 3.234v19.406h-19.406c-1.785 0-3.234 1.449-3.234 3.234s1.449 3.234 3.234 3.234h19.406v19.406c0 1.785 1.449 3.234 3.234 3.234s3.234-1.449 3.234-3.234v-19.406h19.406c1.785 0 3.234-1.449 3.234-3.234s-1.449-3.234-3.234-3.234zm0 0" fill-rule="evenodd"/></g></svg>