<?xml version="1.0" encoding="utf-8"?><svg xmlns="http://www.w3.org/2000/svg" viewBox="0 0 50 50"><radialGradient id="A" cx="15.056" cy="48" r="40.909" gradientUnits="userSpaceOnUse"><stop offset="0" stop-color="#fd5"/><stop offset=".089" stop-color="#fd5"/><stop offset=".415" stop-color="#ff543e"/><stop offset=".799" stop-color="#c837ab"/></radialGradient><circle cx="25" cy="25" r="25" fill="url(#A)"/><radialGradient id="B" cx="-.159" cy="-1.072" r="28.045" gradientTransform="matrix(0.1963 0.9805 -4.0428 0.8095 -4.4598 -4.852784e-02)" gradientUnits="userSpaceOnUse"><stop offset="0" stop-color="#3771c8"/><stop offset=".128" stop-color="#3771c8"/><stop offset="1" stop-color="#60f" stop-opacity="0"/></radialGradient><path d="M25 0h-.5C11.4.3.7 10.6 0 23.7V25c0 .9 0 1.7.1 2.6 1.1 11.3 9.8 20.4 21 22.1a24.66 24.66 0 0 0 3.9.3c2.5 0 4.9-.4 7.1-1 9.8-2.9 17.1-11.7 17.9-22.3v-.4V25C50 11.2 38.8 0 25 0z" fill="url(#B)"/><path d="M25 11.1l-5.7.1c-1.5.1-2.5.3-3.4.6-.9.4-1.7.8-2.5 1.6s-1.2 1.5-1.6 2.5c-.3.9-.6 1.9-.6 3.4l-.1 5.7.1 5.7c.1 1.5.3 2.5.6 3.4.4.9.8 1.7 1.6 2.5s1.5 1.3 2.5 1.6c.9.3 1.9.6 3.4.6l5.7.1 5.7-.1c1.5-.1 2.5-.3 3.4-.6.9-.4 1.7-.8 2.5-1.6s1.2-1.5 1.6-2.5c.3-.9.6-1.9.6-3.4l.1-5.7-.1-5.7c-.1-1.5-.3-2.5-.6-3.4-.4-.9-.8-1.7-1.6-2.5s-1.5-1.2-2.5-1.6c-.9-.3-1.9-.6-3.4-.6-1.4-.1-1.9-.1-5.7-.1h0zm-1.2 2.5H25l5.6.1c1.4.1 2.1.3 2.6.5.6.3 1.1.6 1.6 1 .5.5.8 1 1 1.6.2.5.4 1.2.5 2.6l.1 5.6-.1 5.6c-.1 1.4-.3 2.1-.5 2.6-.3.6-.6 1.1-1 1.6-.5.5-.9.8-1.6 1-.5.2-1.2.4-2.6.5l-5.6.1c-3.7 0-4.2 0-5.6-.1s-2.1-.3-2.6-.5c-.6-.3-1.1-.6-1.6-1-.5-.5-.8-.9-1-1.6-.2-.5-.4-1.2-.5-2.6l-.1-5.6.1-5.6c.1-1.4.3-2.1.5-2.6.3-.6.6-1.1 1-1.6.5-.5 1-.8 1.6-1 .5-.2 1.2-.4 2.6-.5 1.3-.1 1.8-.1 4.4-.1h0zm8.6 2.3c-.9 0-1.7.7-1.7 1.7 0 .9.7 1.7 1.7 1.7s1.7-.7 1.7-1.7-.7-1.7-1.7-1.7h0zm-7.4 2a7.13 7.13 0 0 0-7.1 7.1 7.13 7.13 0 0 0 7.1 7.1 7.13 7.13 0 0 0 7.1-7.1 7.13 7.13 0 0 0-7.1-7.1h0zm0 2.5c2.6 0 4.6 2.1 4.6 4.6 0 2.6-2.1 4.6-4.6 4.6-2.6 0-4.6-2.1-4.6-4.6 0-2.6 2-4.6 4.6-4.6z" fill="#fff"/></svg>