<svg width="16" height="12" viewBox="0 0 16 12" fill="none" xmlns="http://www.w3.org/2000/svg">
<path d="M0.673077 6.1875C0.557692 6.075 0.5 5.90625 0.5 5.79375C0.5 5.68125 0.557692 5.5125 0.673077 5.4L1.48077 4.6125C1.71154 4.3875 2.05769 4.3875 2.28846 4.6125L2.34615 4.66875L5.51923 7.9875C5.63462 8.1 5.80769 8.1 5.92308 7.9875L13.6538 0.16875H13.7115C13.9423 -0.05625 14.2885 -0.05625 14.5192 0.16875L15.3269 0.95625C15.5577 1.18125 15.5577 1.51875 15.3269 1.74375L6.09615 11.0813C5.98077 11.1938 5.86538 11.25 5.69231 11.25C5.51923 11.25 5.40385 11.1938 5.28846 11.0813L0.788462 6.35625L0.673077 6.1875Z" fill="white"/>
</svg>
