<?xml version="1.0" encoding="utf-8"?><svg xmlns="http://www.w3.org/2000/svg" viewBox="0 0 1000 928"><path d="M984.51 517.12a4311 4311 0 0 1-489.28 30v-78.66A12.32 12.32 0 0 0 483 456.2a4232.73 4232.73 0 0 1-465.93-29.31 12.34 12.34 0 0 0-13.74 10.63L.14 618.23c-.85 6.68 4.24 12.88 11.29 13.75 162.92 19.34 306.84 26.85 470.9 28.08 7.09 0 12.9-5.49 12.9-12.23v-75.91a4338.81 4338.81 0 0 0 492.31-30.19 12.46 12.46 0 0 0 11-13.72v-.3a12.48 12.48 0 0 0-14.03-10.59zm1.34 267.22a4310.88 4310.88 0 0 1-489.28 30v-78.66a12.32 12.32 0 0 0-12.26-12.26 4232.91 4232.91 0 0 1-465.9-29.31 12.35 12.35 0 0 0-13.74 10.63L1.48 885.45c-.85 6.68 4.24 12.88 11.3 13.75 162.91 19.34 306.83 26.85 470.89 28.08 7.1 0 12.9-5.49 12.9-12.22v-75.92A4336.5 4336.5 0 0 0 988.88 809a12.47 12.47 0 0 0 11-13.72v-.3a12.48 12.48 0 0 0-14.03-10.64zm-1.34-535.04a4311 4311 0 0 1-489.28 30v-78.65A12.32 12.32 0 0 0 483 188.38a4232.73 4232.73 0 0 1-465.93-29.31A12.35 12.35 0 0 0 3.33 169.7L.14 350.41c-.85 6.68 4.24 12.88 11.29 13.75 162.92 19.34 306.84 26.84 470.9 28.08 7.09 0 12.9-5.49 12.9-12.22v-75.91a4338.82 4338.82 0 0 0 492.31-30.2 12.45 12.45 0 0 0 11-13.71v-.31a12.49 12.49 0 0 0-14.03-10.59z"/><ellipse cx="499.33" cy="54.44" rx="491.74" ry="53.72"/></svg>