<?xml version="1.0" standalone="no"?>
<!DOCTYPE svg PUBLIC "-//W3C//DTD SVG 20010904//EN"
 "http://www.w3.org/TR/2001/REC-SVG-20010904/DTD/svg10.dtd">
<svg version="1.0" xmlns="http://www.w3.org/2000/svg"
 width="700.000000pt" height="700.000000pt" viewBox="0 0 700.000000 700.000000"
 preserveAspectRatio="xMidYMid meet">
<metadata>
Created by potrace 1.14, written by Peter Selinger 2001-2017
</metadata>
<g transform="translate(0.000000,700.000000) scale(0.100000,-0.100000)"
fill="#000000" stroke="none">
<path d="M3237 6744 c-1 -1 -164 -5 -362 -9 -198 -4 -396 -8 -440 -10 -104 -4
-352 -15 -435 -20 -36 -2 -112 -7 -170 -10 -176 -10 -379 -24 -430 -30 -19 -2
-71 -7 -115 -10 -44 -3 -91 -8 -105 -10 -33 -5 -135 -16 -185 -20 -22 -2 -53
-6 -70 -9 -16 -2 -54 -8 -84 -11 -30 -4 -62 -8 -71 -10 -9 -2 -41 -6 -71 -10
-85 -10 -347 -64 -424 -86 -147 -44 -220 -92 -213 -141 12 -86 369 -184 888
-243 30 -4 69 -8 85 -10 17 -2 66 -6 110 -10 44 -4 88 -9 99 -11 10 -2 53 -6
95 -9 72 -5 117 -9 236 -19 28 -3 97 -8 155 -11 58 -3 130 -8 160 -10 52 -4
189 -10 410 -20 637 -27 1860 -27 2420 0 273 14 322 16 390 20 230 14 269 16
310 20 52 4 174 15 240 20 77 6 188 17 215 20 14 1 53 6 88 9 64 7 166 20 272
36 33 5 80 12 105 15 205 27 478 101 551 150 123 81 -7 169 -351 239 -112 22
-342 58 -460 71 -30 3 -62 8 -70 10 -8 2 -51 7 -94 10 -43 4 -86 8 -95 10 -15
3 -97 10 -226 20 -27 2 -84 7 -125 10 -93 8 -167 13 -290 20 -52 3 -124 7
-160 10 -57 3 -238 11 -465 20 -236 10 -1311 25 -1318 19z"/>
<path d="M68 5624 c-46 -24 -44 1 -52 -499 -4 -203 -9 -477 -11 -608 -6 -305
-5 -309 115 -323 63 -7 124 -14 160 -19 19 -2 62 -7 95 -10 33 -3 78 -8 100
-10 22 -3 63 -7 90 -10 156 -14 183 -17 210 -20 17 -2 62 -6 100 -10 39 -3 93
-8 120 -10 28 -3 88 -7 135 -10 47 -3 99 -7 115 -10 17 -2 80 -7 140 -11 61
-3 126 -7 145 -9 19 -2 96 -6 170 -10 74 -4 164 -8 200 -10 368 -21 767 -33
1231 -40 l276 -3 27 24 c14 14 27 28 27 32 1 4 3 130 4 279 0 150 3 274 6 277
2 2 180 7 394 11 473 8 669 15 960 30 50 3 137 7 195 10 58 3 134 7 170 10 36
2 108 7 160 10 52 4 115 8 140 10 25 2 86 6 135 10 50 4 110 8 135 11 25 2 79
6 120 9 41 3 91 7 110 10 19 3 69 7 110 11 41 3 91 7 110 9 19 2 67 6 105 10
39 3 86 8 105 10 19 2 60 7 90 10 30 3 71 8 90 10 19 2 64 7 100 11 36 4 72 8
80 9 135 11 160 17 185 47 41 48 30 101 -28 131 -19 10 -42 12 -84 6 -32 -5
-87 -11 -123 -14 -36 -4 -72 -8 -80 -10 -8 -2 -51 -7 -95 -10 -44 -4 -87 -8
-95 -10 -8 -2 -53 -7 -100 -10 -47 -4 -92 -9 -101 -10 -9 -2 -56 -6 -105 -10
-49 -3 -100 -8 -114 -10 -14 -2 -63 -7 -110 -10 -47 -3 -96 -8 -110 -10 -14
-2 -65 -6 -115 -10 -49 -3 -115 -8 -145 -10 -30 -3 -98 -7 -150 -10 -52 -4
-111 -8 -130 -10 -19 -2 -93 -6 -165 -10 -175 -10 -194 -11 -390 -20 -93 -4
-199 -8 -235 -10 -143 -7 -598 -18 -804 -19 l-220 -1 0 285 c-1 296 -4 317
-44 339 -10 5 -166 12 -347 16 -339 7 -393 8 -676 20 -215 8 -316 13 -419 19
-47 3 -128 8 -180 11 -52 3 -120 7 -150 10 -30 2 -93 7 -140 10 -102 6 -207
14 -275 20 -27 3 -79 7 -115 10 -36 3 -91 7 -122 10 -32 3 -86 7 -120 10 -35
3 -79 8 -98 10 -19 2 -62 7 -95 10 -128 12 -173 16 -255 25 -137 16 -151 18
-225 25 -38 4 -79 8 -90 10 -11 1 -32 -3 -47 -11z"/>
<path d="M55 3738 c-23 -20 -28 -33 -31 -79 -4 -76 -17 -831 -18 -1081 -1
-258 -10 -243 160 -263 105 -13 214 -25 264 -30 59 -6 112 -11 200 -21 110
-11 126 -13 200 -19 41 -3 91 -8 110 -10 38 -3 160 -13 258 -20 34 -3 90 -7
125 -10 136 -11 196 -15 297 -20 58 -3 139 -8 180 -10 127 -8 269 -15 420 -20
80 -3 199 -8 265 -10 66 -3 300 -8 520 -11 l401 -7 29 26 30 25 1 276 c0 152
4 279 8 283 4 4 87 8 184 9 184 2 657 13 822 19 202 8 637 30 765 40 28 2 102
6 165 10 63 4 131 8 150 10 19 2 75 6 124 10 49 3 106 8 125 10 20 2 72 6 116
9 90 7 169 14 235 21 25 3 70 7 100 10 121 12 147 14 205 20 33 4 71 8 85 10
14 2 59 7 100 10 41 4 82 9 90 10 8 2 44 6 80 10 97 10 136 22 154 50 24 37
20 73 -14 107 -32 32 -36 32 -175 14 -16 -2 -59 -7 -95 -11 -36 -4 -76 -8 -90
-10 -14 -2 -61 -7 -105 -10 -44 -4 -82 -8 -85 -10 -3 -2 -45 -6 -95 -10 -49
-3 -101 -8 -115 -10 -14 -2 -59 -7 -100 -10 -41 -4 -91 -8 -110 -10 -19 -2
-71 -6 -115 -10 -44 -3 -100 -8 -125 -10 -137 -12 -353 -27 -570 -40 -52 -3
-126 -7 -165 -10 -68 -4 -195 -10 -415 -20 -297 -14 -997 -29 -1120 -25 -13 0
-15 37 -14 277 0 153 -3 290 -9 306 -14 42 -41 51 -167 53 -172 3 -705 16
-780 19 -219 9 -383 17 -435 20 -33 2 -114 6 -180 10 -66 3 -142 7 -170 10
-27 2 -90 7 -140 10 -150 9 -231 15 -400 30 -27 2 -79 6 -115 9 -165 14 -207
17 -230 21 -14 2 -56 6 -95 10 -82 6 -168 15 -210 20 -16 2 -77 9 -135 15 -58
6 -121 13 -140 15 -164 18 -175 18 -205 -7z"/>
<path d="M66 1869 c-34 -30 -34 -25 -41 -464 -3 -198 -8 -478 -11 -623 -3
-174 -1 -269 6 -282 21 -39 61 -50 235 -65 41 -4 135 -15 165 -20 14 -2 61 -7
104 -10 43 -4 86 -8 95 -10 9 -2 54 -6 101 -9 47 -4 101 -9 120 -11 40 -5 122
-12 225 -20 39 -3 93 -7 120 -10 28 -2 88 -7 135 -10 47 -3 110 -7 140 -10
117 -9 219 -15 320 -20 58 -3 143 -7 190 -10 47 -3 153 -8 235 -11 83 -3 193
-7 245 -9 116 -5 785 -18 893 -18 72 0 81 2 105 27 l27 26 1 275 c0 151 3 278
7 281 4 4 109 8 234 9 238 3 630 13 793 20 52 2 151 7 220 10 69 3 163 7 210
10 151 8 293 16 365 20 39 2 99 6 135 10 36 3 99 8 140 10 101 7 165 12 385
31 28 2 70 6 95 9 25 2 79 7 120 10 41 4 86 8 100 10 14 2 57 6 95 10 106 9
304 30 385 40 41 6 150 17 167 18 26 1 64 43 69 78 5 28 1 41 -18 64 -27 31
-67 37 -165 24 -32 -5 -87 -11 -123 -15 -35 -3 -72 -7 -81 -9 -10 -2 -50 -7
-91 -10 -40 -4 -84 -9 -98 -10 -14 -1 -59 -6 -100 -9 -41 -4 -86 -9 -100 -11
-24 -4 -93 -10 -227 -20 -38 -3 -88 -8 -113 -10 -25 -3 -81 -7 -125 -10 -44
-3 -96 -8 -115 -10 -19 -2 -78 -7 -130 -10 -52 -3 -115 -8 -140 -10 -25 -2
-100 -6 -167 -10 -67 -3 -143 -8 -170 -10 -26 -2 -111 -6 -188 -10 -77 -3
-171 -8 -210 -10 -164 -10 -533 -18 -835 -19 l-324 -1 -1 285 c0 297 -3 319
-45 336 -8 3 -73 8 -145 9 -71 2 -251 6 -400 10 -148 3 -313 8 -365 10 -52 2
-156 7 -230 10 -74 3 -171 8 -215 10 -44 2 -129 7 -190 10 -60 3 -135 8 -165
10 -67 6 -155 12 -275 20 -49 3 -115 8 -145 10 -30 3 -80 7 -110 10 -56 4
-146 12 -255 21 -33 2 -76 7 -95 9 -32 4 -70 8 -210 21 -25 2 -63 6 -85 9 -22
2 -89 9 -150 15 -60 6 -121 13 -135 16 -14 2 -57 7 -96 10 -64 6 -73 4 -98
-17z"/>
</g>
</svg>
